<svg width="478" height="72" viewBox="0 0 478 72" fill="none" xmlns="http://www.w3.org/2000/svg">
<path d="M47.7 57.7H19.9L15.3 71H0.6L25.7 1.09999H42L67.1 71H52.3L47.7 57.7ZM43.9 46.5L33.8 17.3L23.7 46.5H43.9ZM116.082 35.2C120.015 35.9333 123.249 37.9 125.782 41.1C128.315 44.3 129.582 47.9667 129.582 52.1C129.582 55.8333 128.649 59.1333 126.782 62C124.982 64.8 122.349 67 118.882 68.6C115.415 70.2 111.315 71 106.582 71H76.482V1.2H105.282C110.015 1.2 114.082 1.96667 117.482 3.5C120.949 5.03333 123.549 7.16667 125.282 9.9C127.082 12.6333 127.982 15.7333 127.982 19.2C127.982 23.2667 126.882 26.6667 124.682 29.4C122.549 32.1333 119.682 34.0667 116.082 35.2ZM90.482 30H103.282C106.615 30 109.182 29.2667 110.982 27.8C112.782 26.2667 113.682 24.1 113.682 21.3C113.682 18.5 112.782 16.3333 110.982 14.8C109.182 13.2667 106.615 12.5 103.282 12.5H90.482V30ZM104.582 59.6C107.982 59.6 110.615 58.8 112.482 57.2C114.415 55.6 115.382 53.3333 115.382 50.4C115.382 47.4 114.382 45.0667 112.382 43.4C110.382 41.6667 107.682 40.8 104.282 40.8H90.482V59.6H104.582ZM173.14 71.7C166.607 71.7 160.607 70.1667 155.14 67.1C149.673 64.0333 145.34 59.8 142.14 54.4C138.94 48.9333 137.34 42.7667 137.34 35.9C137.34 29.1 138.94 23 142.14 17.6C145.34 12.1333 149.673 7.86666 155.14 4.79999C160.607 1.73333 166.607 0.2 173.14 0.2C179.74 0.2 185.74 1.73333 191.14 4.79999C196.607 7.86666 200.907 12.1333 204.04 17.6C207.24 23 208.84 29.1 208.84 35.9C208.84 42.7667 207.24 48.9333 204.04 54.4C200.907 59.8 196.607 64.0333 191.14 67.1C185.673 70.1667 179.673 71.7 173.14 71.7ZM173.14 59.2C177.34 59.2 181.04 58.2667 184.24 56.4C187.44 54.4667 189.94 51.7333 191.74 48.2C193.54 44.6667 194.44 40.5667 194.44 35.9C194.44 31.2333 193.54 27.1667 191.74 23.7C189.94 20.1667 187.44 17.4667 184.24 15.6C181.04 13.7333 177.34 12.8 173.14 12.8C168.94 12.8 165.207 13.7333 161.94 15.6C158.74 17.4667 156.24 20.1667 154.44 23.7C152.64 27.1667 151.74 31.2333 151.74 35.9C151.74 40.5667 152.64 44.6667 154.44 48.2C156.24 51.7333 158.74 54.4667 161.94 56.4C165.207 58.2667 168.94 59.2 173.14 59.2ZM233.055 1.2V44.4C233.055 49.1333 234.289 52.7667 236.755 55.3C239.222 57.7667 242.689 59 247.155 59C251.689 59 255.189 57.7667 257.655 55.3C260.122 52.7667 261.355 49.1333 261.355 44.4V1.2H275.455V44.3C275.455 50.2333 274.155 55.2667 271.555 59.4C269.022 63.4667 265.589 66.5333 261.255 68.6C256.989 70.6667 252.222 71.7 246.955 71.7C241.755 71.7 237.022 70.6667 232.755 68.6C228.555 66.5333 225.222 63.4667 222.755 59.4C220.289 55.2667 219.055 50.2333 219.055 44.3V1.2H233.055ZM336.482 1.2V12.5H317.882V71H303.882V12.5H285.282V1.2H336.482ZM422.797 1.2V71H408.797V25.6L390.097 71H379.497L360.697 25.6V71H346.697V1.2H362.597L384.797 53.1L406.997 1.2H422.797ZM450.638 12.5V30H474.138V41.1H450.638V59.6H477.138V71H436.638V1.09999H477.138V12.5H450.638Z" fill="black"/>
</svg>
