<svg width="353" height="161" viewBox="0 0 353 161" fill="none" xmlns="http://www.w3.org/2000/svg">
<path d="M43.944 53.12H14.76L9.384 68H0.168L24.36 1.472H34.44L58.536 68H49.32L43.944 53.12ZM41.448 46.016L29.352 12.224L17.256 46.016H41.448ZM121.688 68H112.952L77.8155 14.72V68H69.0795V0.991999H77.8155L112.952 54.176V0.991999H121.688V68ZM187.268 20.48C185.412 16.576 182.724 13.568 179.204 11.456C175.684 9.28 171.588 8.192 166.916 8.192C162.244 8.192 158.02 9.28 154.244 11.456C150.532 13.568 147.588 16.64 145.412 20.672C143.3 24.64 142.244 29.248 142.244 34.496C142.244 39.744 143.3 44.352 145.412 48.32C147.588 52.288 150.532 55.36 154.244 57.536C158.02 59.648 162.244 60.704 166.916 60.704C173.444 60.704 178.82 58.752 183.044 54.848C187.268 50.944 189.732 45.664 190.436 39.008H163.748V31.904H199.748V38.624C199.236 44.128 197.508 49.184 194.564 53.792C191.62 58.336 187.748 61.952 182.948 64.64C178.148 67.264 172.804 68.576 166.916 68.576C160.708 68.576 155.044 67.136 149.924 64.256C144.804 61.312 140.74 57.248 137.732 52.064C134.788 46.88 133.316 41.024 133.316 34.496C133.316 27.968 134.788 22.112 137.732 16.928C140.74 11.68 144.804 7.616 149.924 4.736C155.044 1.792 160.708 0.319996 166.916 0.319996C174.02 0.319996 180.292 2.08 185.732 5.6C191.236 9.12 195.236 14.08 197.732 20.48H187.268ZM261.986 20.48C260.13 16.576 257.442 13.568 253.922 11.456C250.402 9.28 246.306 8.192 241.634 8.192C236.962 8.192 232.738 9.28 228.962 11.456C225.25 13.568 222.306 16.64 220.13 20.672C218.018 24.64 216.962 29.248 216.962 34.496C216.962 39.744 218.018 44.352 220.13 48.32C222.306 52.288 225.25 55.36 228.962 57.536C232.738 59.648 236.962 60.704 241.634 60.704C248.162 60.704 253.538 58.752 257.762 54.848C261.986 50.944 264.45 45.664 265.154 39.008H238.466V31.904H274.466V38.624C273.954 44.128 272.226 49.184 269.282 53.792C266.338 58.336 262.466 61.952 257.666 64.64C252.866 67.264 247.522 68.576 241.634 68.576C235.426 68.576 229.762 67.136 224.642 64.256C219.522 61.312 215.458 57.248 212.45 52.064C209.506 46.88 208.034 41.024 208.034 34.496C208.034 27.968 209.506 22.112 212.45 16.928C215.458 11.68 219.522 7.616 224.642 4.736C229.762 1.792 235.426 0.319996 241.634 0.319996C248.738 0.319996 255.01 2.08 260.45 5.6C265.954 9.12 269.954 14.08 272.45 20.48H261.986ZM325.569 53.12H296.385L291.009 68H281.793L305.985 1.472H316.065L340.161 68H330.945L325.569 53.12ZM323.073 46.016L310.977 12.224L298.881 46.016H323.073Z" fill="#0B0A0A"/>
<path d="M43.944 53.12L44.8845 52.7802L44.646 52.12H43.944V53.12ZM14.76 53.12V52.12H14.058L13.8195 52.7802L14.76 53.12ZM9.384 68V69H10.086L10.3245 68.3398L9.384 68ZM0.168 68L-0.771793 67.6583L-1.2597 69H0.168V68ZM24.36 1.472V0.471998H23.6596L23.4202 1.13026L24.36 1.472ZM34.44 1.472L35.3802 1.13145L35.1414 0.471998H34.44V1.472ZM58.536 68V69H59.9618L59.4762 67.6595L58.536 68ZM49.32 68L48.3795 68.3398L48.618 69H49.32V68ZM41.448 46.016V47.016H42.8681L42.3895 45.679L41.448 46.016ZM29.352 12.224L30.2935 11.887L29.352 9.25676L28.4105 11.887L29.352 12.224ZM17.256 46.016L16.3145 45.679L15.8359 47.016H17.256V46.016ZM43.944 52.12H14.76V54.12H43.944V52.12ZM13.8195 52.7802L8.4435 67.6602L10.3245 68.3398L15.7005 53.4598L13.8195 52.7802ZM9.384 67H0.168V69H9.384V67ZM1.10779 68.3417L25.2998 1.81374L23.4202 1.13026L-0.771793 67.6583L1.10779 68.3417ZM24.36 2.472H34.44V0.471998H24.36V2.472ZM33.4998 1.81254L57.5958 68.3405L59.4762 67.6595L35.3802 1.13145L33.4998 1.81254ZM58.536 67H49.32V69H58.536V67ZM50.2605 67.6602L44.8845 52.7802L43.0035 53.4598L48.3795 68.3398L50.2605 67.6602ZM42.3895 45.679L30.2935 11.887L28.4105 12.561L40.5065 46.353L42.3895 45.679ZM28.4105 11.887L16.3145 45.679L18.1975 46.353L30.2935 12.561L28.4105 11.887ZM17.256 47.016H41.448V45.016H17.256V47.016ZM121.688 68V69H122.688V68H121.688ZM112.952 68L112.117 68.5505L112.413 69H112.952V68ZM77.8155 14.72L78.6503 14.1695L76.8155 11.3872V14.72H77.8155ZM77.8155 68V69H78.8155V68H77.8155ZM69.0795 68H68.0795V69H69.0795V68ZM69.0795 0.991999V-0.00800133H68.0795V0.991999H69.0795ZM77.8155 0.991999L78.6499 0.440779L78.3534 -0.00800133H77.8155V0.991999ZM112.952 54.176L112.117 54.7272L113.952 57.5038V54.176H112.952ZM112.952 0.991999V-0.00800133H111.952V0.991999H112.952ZM121.688 0.991999H122.688V-0.00800133H121.688V0.991999ZM121.688 67H112.952V69H121.688V67ZM113.786 67.4495L78.6503 14.1695L76.9807 15.2705L112.117 68.5505L113.786 67.4495ZM76.8155 14.72V68H78.8155V14.72H76.8155ZM77.8155 67H69.0795V69H77.8155V67ZM70.0795 68V0.991999H68.0795V68H70.0795ZM69.0795 1.992H77.8155V-0.00800133H69.0795V1.992ZM76.9811 1.54322L112.117 54.7272L113.786 53.6248L78.6499 0.440779L76.9811 1.54322ZM113.952 54.176V0.991999H111.952V54.176H113.952ZM112.952 1.992H121.688V-0.00800133H112.952V1.992ZM120.688 0.991999V68H122.688V0.991999H120.688ZM187.268 20.48L186.364 20.9094L186.636 21.48H187.268V20.48ZM179.204 11.456L178.678 12.3067L178.689 12.3135L179.204 11.456ZM154.244 11.456L154.738 12.3252L154.743 12.3224L154.244 11.456ZM145.412 20.672L144.531 20.1971L144.529 20.2021L145.412 20.672ZM145.412 48.32L144.529 48.7899L144.535 48.8008L145.412 48.32ZM154.244 57.536L153.738 58.3987L153.747 58.4038L153.755 58.4088L154.244 57.536ZM183.044 54.848L183.722 55.5824L183.722 55.5824L183.044 54.848ZM190.436 39.008L191.43 39.1132L191.547 38.008H190.436V39.008ZM163.748 39.008H162.748V40.008H163.748V39.008ZM163.748 31.904V30.904H162.748V31.904H163.748ZM199.748 31.904H200.748V30.904H199.748V31.904ZM199.748 38.624L200.743 38.7166L200.748 38.6704V38.624H199.748ZM194.564 53.792L195.403 54.3358L195.406 54.3304L194.564 53.792ZM182.948 64.64L183.427 65.5175L183.436 65.5125L182.948 64.64ZM149.924 64.256L149.425 65.1229L149.433 65.1276L149.924 64.256ZM137.732 52.064L136.862 52.5578L136.867 52.5659L137.732 52.064ZM137.732 16.928L136.864 16.4307L136.862 16.4342L137.732 16.928ZM149.924 4.736L150.414 5.60761L150.422 5.6029L149.924 4.736ZM185.732 5.6L185.188 6.43958L185.193 6.44245L185.732 5.6ZM197.732 20.48V21.48H199.195L198.663 20.1167L197.732 20.48ZM188.171 20.0506C186.235 15.9787 183.416 12.8173 179.718 10.5985L178.689 12.3135C182.031 14.3186 184.588 17.1733 186.364 20.9094L188.171 20.0506ZM179.729 10.6054C176.032 8.31957 171.749 7.192 166.916 7.192V9.192C171.426 9.192 175.335 10.2404 178.678 12.3066L179.729 10.6054ZM166.916 7.192C162.081 7.192 157.683 8.31976 153.744 10.5896L154.743 12.3224C158.356 10.2402 162.406 9.192 166.916 9.192V7.192ZM153.749 10.5868C149.862 12.7983 146.79 16.0126 144.531 20.1971L146.292 21.1469C148.385 17.2674 151.201 14.3377 154.738 12.3252L153.749 10.5868ZM144.529 20.2021C142.328 24.3373 141.244 29.1117 141.244 34.496H143.244C143.244 29.3843 144.271 24.9427 146.294 21.1418L144.529 20.2021ZM141.244 34.496C141.244 39.8803 142.328 44.6547 144.529 48.7898L146.294 47.8501C144.271 44.0493 143.244 39.6077 143.244 34.496H141.244ZM144.535 48.8008C146.793 52.9188 149.862 56.1265 153.738 58.3987L154.749 56.6733C151.201 54.5935 148.382 51.6572 146.288 47.8392L144.535 48.8008ZM153.755 58.4088C157.692 60.6108 162.087 61.704 166.916 61.704V59.704C162.4 59.704 158.347 58.6852 154.732 56.6632L153.755 58.4088ZM166.916 61.704C173.659 61.704 179.288 59.6804 183.722 55.5824L182.365 54.1136C178.351 57.8236 173.228 59.704 166.916 59.704V61.704ZM183.722 55.5824C188.153 51.4874 190.705 45.9684 191.43 39.1132L189.441 38.9028C188.758 45.3596 186.382 50.4006 182.365 54.1136L183.722 55.5824ZM190.436 38.008H163.748V40.008H190.436V38.008ZM164.748 39.008V31.904H162.748V39.008H164.748ZM163.748 32.904H199.748V30.904H163.748V32.904ZM198.748 31.904V38.624H200.748V31.904H198.748ZM198.752 38.5314C198.254 43.8785 196.578 48.7814 193.721 53.2536L195.406 54.3304C198.437 49.5866 200.217 44.3775 200.743 38.7166L198.752 38.5314ZM193.724 53.2483C190.87 57.6535 187.119 61.1576 182.459 63.7675L183.436 65.5125C188.376 62.7464 192.369 59.0185 195.403 54.3357L193.724 53.2483ZM182.468 63.7626C177.826 66.3001 172.649 67.576 166.916 67.576V69.576C172.958 69.576 178.469 68.2279 183.427 65.5174L182.468 63.7626ZM166.916 67.576C160.869 67.576 155.376 66.1754 150.414 63.3844L149.433 65.1276C154.711 68.0966 160.546 69.576 166.916 69.576V67.576ZM150.422 63.3891C145.456 60.5339 141.518 56.5968 138.596 51.5621L136.867 52.5659C139.961 57.8992 144.151 62.0901 149.425 65.1229L150.422 63.3891ZM138.601 51.5702C135.751 46.5508 134.316 40.8678 134.316 34.496H132.316C132.316 41.1802 133.824 47.2092 136.862 52.5578L138.601 51.5702ZM134.316 34.496C134.316 28.1242 135.751 22.4412 138.601 17.4218L136.862 16.4342C133.824 21.7828 132.316 27.8118 132.316 34.496H134.316ZM138.599 17.4253C141.52 12.3289 145.456 8.39641 150.414 5.60757L149.433 3.86442C144.151 6.83558 139.959 11.0311 136.864 16.4307L138.599 17.4253ZM150.422 5.6029C155.382 2.75062 160.873 1.32 166.916 1.32V-0.680004C160.542 -0.680004 154.705 0.833367 149.425 3.86909L150.422 5.6029ZM166.916 1.32C173.846 1.32 179.926 3.0343 185.188 6.43957L186.275 4.76043C180.657 1.12569 174.193 -0.680004 166.916 -0.680004V1.32ZM185.193 6.44245C190.509 9.84227 194.377 14.6298 196.8 20.8433L198.663 20.1167C196.094 13.5302 191.962 8.39772 186.27 4.75755L185.193 6.44245ZM197.732 19.48H187.268V21.48H197.732V19.48ZM261.986 20.48L261.083 20.9094L261.354 21.48H261.986V20.48ZM253.922 11.456L253.396 12.3067L253.408 12.3135L253.922 11.456ZM228.962 11.456L229.457 12.3252L229.462 12.3224L228.962 11.456ZM220.13 20.672L219.25 20.1971L219.248 20.2021L220.13 20.672ZM220.13 48.32L219.247 48.7899L219.253 48.8008L220.13 48.32ZM228.962 57.536L228.457 58.3987L228.465 58.4038L228.474 58.4088L228.962 57.536ZM257.762 54.848L258.441 55.5824L258.441 55.5824L257.762 54.848ZM265.154 39.008L266.149 39.1132L266.266 38.008H265.154V39.008ZM238.466 39.008H237.466V40.008H238.466V39.008ZM238.466 31.904V30.904H237.466V31.904H238.466ZM274.466 31.904H275.466V30.904H274.466V31.904ZM274.466 38.624L275.462 38.7166L275.466 38.6704V38.624H274.466ZM269.282 53.792L270.122 54.3358L270.125 54.3304L269.282 53.792ZM257.666 64.64L258.146 65.5175L258.155 65.5125L257.666 64.64ZM224.642 64.256L224.144 65.1229L224.152 65.1276L224.642 64.256ZM212.45 52.064L211.581 52.5578L211.585 52.5659L212.45 52.064ZM212.45 16.928L211.583 16.4307L211.581 16.4342L212.45 16.928ZM224.642 4.736L225.133 5.60761L225.141 5.6029L224.642 4.736ZM260.45 5.6L259.907 6.43958L259.911 6.44245L260.45 5.6ZM272.45 20.48V21.48H273.914L273.382 20.1167L272.45 20.48ZM262.889 20.0506C260.954 15.9787 258.135 12.8173 254.437 10.5985L253.408 12.3135C256.75 14.3186 259.307 17.1733 261.083 20.9094L262.889 20.0506ZM254.448 10.6054C250.75 8.31957 246.467 7.192 241.634 7.192V9.192C246.145 9.192 250.054 10.2404 253.396 12.3066L254.448 10.6054ZM241.634 7.192C236.8 7.192 232.402 8.31976 228.463 10.5896L229.462 12.3224C233.075 10.2402 237.124 9.192 241.634 9.192V7.192ZM228.468 10.5868C224.581 12.7983 221.508 16.0126 219.25 20.1971L221.01 21.1469C223.104 17.2674 225.92 14.3377 229.457 12.3252L228.468 10.5868ZM219.248 20.2021C217.047 24.3373 215.962 29.1117 215.962 34.496H217.962C217.962 29.3843 218.99 24.9427 221.013 21.1418L219.248 20.2021ZM215.962 34.496C215.962 39.8803 217.047 44.6547 219.248 48.7898L221.013 47.8501C218.99 44.0493 217.962 39.6077 217.962 34.496H215.962ZM219.253 48.8008C221.512 52.9188 224.58 56.1265 228.457 58.3987L229.468 56.6733C225.92 54.5935 223.101 51.6572 221.007 47.8392L219.253 48.8008ZM228.474 58.4088C232.411 60.6108 236.805 61.704 241.634 61.704V59.704C237.119 59.704 233.065 58.6852 229.45 56.6632L228.474 58.4088ZM241.634 61.704C248.377 61.704 254.007 59.6804 258.441 55.5824L257.084 54.1136C253.069 57.8236 247.947 59.704 241.634 59.704V61.704ZM258.441 55.5824C262.872 51.4874 265.424 45.9684 266.149 39.1132L264.16 38.9028C263.477 45.3596 261.101 50.4006 257.084 54.1136L258.441 55.5824ZM265.154 38.008H238.466V40.008H265.154V38.008ZM239.466 39.008V31.904H237.466V39.008H239.466ZM238.466 32.904H274.466V30.904H238.466V32.904ZM273.466 31.904V38.624H275.466V31.904H273.466ZM273.471 38.5314C272.973 43.8785 271.297 48.7814 268.44 53.2536L270.125 54.3304C273.156 49.5866 274.935 44.3775 275.462 38.7166L273.471 38.5314ZM268.443 53.2483C265.589 57.6535 261.838 61.1576 257.178 63.7675L258.155 65.5125C263.094 62.7464 267.088 59.0185 270.122 54.3357L268.443 53.2483ZM257.187 63.7626C252.545 66.3001 247.368 67.576 241.634 67.576V69.576C247.677 69.576 253.188 68.2279 258.146 65.5174L257.187 63.7626ZM241.634 67.576C235.588 67.576 230.094 66.1754 225.133 63.3844L224.152 65.1276C229.43 68.0966 235.265 69.576 241.634 69.576V67.576ZM225.141 63.3891C220.175 60.5339 216.237 56.5968 213.315 51.5621L211.585 52.5659C214.68 57.8992 218.869 62.0901 224.144 65.1229L225.141 63.3891ZM213.32 51.5702C210.469 46.5508 209.034 40.8678 209.034 34.496H207.034C207.034 41.1802 208.543 47.2092 211.581 52.5578L213.32 51.5702ZM209.034 34.496C209.034 28.1242 210.469 22.4412 213.32 17.4218L211.581 16.4342C208.543 21.7828 207.034 27.8118 207.034 34.496H209.034ZM213.318 17.4253C216.239 12.3289 220.175 8.39641 225.133 5.60757L224.152 3.86442C218.87 6.83558 214.678 11.0311 211.583 16.4307L213.318 17.4253ZM225.141 5.6029C230.101 2.75062 235.592 1.32 241.634 1.32V-0.680004C235.261 -0.680004 229.423 0.833367 224.144 3.86909L225.141 5.6029ZM241.634 1.32C248.565 1.32 254.644 3.0343 259.907 6.43957L260.994 4.76043C255.376 1.12569 248.912 -0.680004 241.634 -0.680004V1.32ZM259.911 6.44245C265.228 9.84227 269.095 14.6298 271.519 20.8433L273.382 20.1167C270.813 13.5302 266.681 8.39772 260.989 4.75755L259.911 6.44245ZM272.45 19.48H261.986V21.48H272.45V19.48ZM325.569 53.12L326.51 52.7802L326.271 52.12H325.569V53.12ZM296.385 53.12V52.12H295.683L295.445 52.7802L296.385 53.12ZM291.009 68V69H291.711L291.95 68.3398L291.009 68ZM281.793 68L280.853 67.6583L280.365 69H281.793V68ZM305.985 1.472V0.471998H305.285L305.045 1.13026L305.985 1.472ZM316.065 1.472L317.005 1.13145L316.766 0.471998H316.065V1.472ZM340.161 68V69H341.587L341.101 67.6595L340.161 68ZM330.945 68L330.005 68.3398L330.243 69H330.945V68ZM323.073 46.016V47.016H324.493L324.015 45.679L323.073 46.016ZM310.977 12.224L311.919 11.887L310.977 9.25676L310.036 11.887L310.977 12.224ZM298.881 46.016L297.94 45.679L297.461 47.016H298.881V46.016ZM325.569 52.12H296.385V54.12H325.569V52.12ZM295.445 52.7802L290.069 67.6602L291.95 68.3398L297.326 53.4598L295.445 52.7802ZM291.009 67H281.793V69H291.009V67ZM282.733 68.3417L306.925 1.81374L305.045 1.13026L280.853 67.6583L282.733 68.3417ZM305.985 2.472H316.065V0.471998H305.985V2.472ZM315.125 1.81254L339.221 68.3405L341.101 67.6595L317.005 1.13145L315.125 1.81254ZM340.161 67H330.945V69H340.161V67ZM331.886 67.6602L326.51 52.7802L324.629 53.4598L330.005 68.3398L331.886 67.6602ZM324.015 45.679L311.919 11.887L310.036 12.561L322.132 46.353L324.015 45.679ZM310.036 11.887L297.94 45.679L299.823 46.353L311.919 12.561L310.036 11.887ZM298.881 47.016H323.073V45.016H298.881V47.016Z" fill="black"/>
<path d="M37.896 126.536C40.328 126.92 42.536 127.912 44.52 129.512C46.568 131.112 48.168 133.096 49.32 135.464C50.536 137.832 51.144 140.36 51.144 143.048C51.144 146.44 50.28 149.512 48.552 152.264C46.824 154.952 44.296 157.096 40.968 158.696C37.704 160.232 33.832 161 29.352 161H4.392V94.088H28.392C32.936 94.088 36.808 94.856 40.008 96.392C43.208 97.864 45.608 99.88 47.208 102.44C48.808 105 49.608 107.88 49.608 111.08C49.608 115.048 48.52 118.344 46.344 120.968C44.232 123.528 41.416 125.384 37.896 126.536ZM13.128 122.984H27.816C31.912 122.984 35.08 122.024 37.32 120.104C39.56 118.184 40.68 115.528 40.68 112.136C40.68 108.744 39.56 106.088 37.32 104.168C35.08 102.248 31.848 101.288 27.624 101.288H13.128V122.984ZM28.584 153.8C32.936 153.8 36.328 152.776 38.76 150.728C41.192 148.68 42.408 145.832 42.408 142.184C42.408 138.472 41.128 135.56 38.568 133.448C36.008 131.272 32.584 130.184 28.296 130.184H13.128V153.8H28.584ZM72.003 94.088V161H63.267V94.088H72.003ZM154.764 94.568V161H146.028V111.464L123.948 161H117.804L95.628 111.368V161H86.892V94.568H96.3L120.876 149.48L145.452 94.568H154.764ZM222.188 161H213.452L178.316 107.72V161H169.58V93.992H178.316L213.452 147.176V93.992H222.188V161Z" fill="black"/>
<line x1="240" y1="125" x2="353" y2="125" stroke="black" stroke-width="4"/>
</svg>
