<svg width="3951" height="2027" viewBox="0 0 3951 2027" fill="none" xmlns="http://www.w3.org/2000/svg">
<path d="M1245.97 2026.93C1246.5 2026.93 1246.93 2026.5 1246.93 2025.97C1246.93 2025.43 1246.5 2025 1245.97 2025C1245.43 2025 1245 2025.43 1245 2025.97C1245 2026.5 1245.43 2026.93 1245.97 2026.93Z" fill="white"/>
<path d="M1244.97 1979.93C1245.5 1979.93 1245.93 1979.5 1245.93 1978.97C1245.93 1978.43 1245.5 1978 1244.97 1978C1244.43 1978 1244 1978.43 1244 1978.97C1244 1979.5 1244.43 1979.93 1244.97 1979.93Z" fill="white"/>
<path d="M1268.97 2002.93C1269.5 2002.93 1269.93 2002.5 1269.93 2001.97C1269.93 2001.43 1269.5 2001 1268.97 2001C1268.43 2001 1268 2001.43 1268 2001.97C1268 2002.5 1268.43 2002.93 1268.97 2002.93Z" fill="white"/>
<path d="M1220.97 2002.93C1221.5 2002.93 1221.93 2002.5 1221.93 2001.97C1221.93 2001.43 1221.5 2001 1220.97 2001C1220.43 2001 1220 2001.43 1220 2001.97C1220 2002.5 1220.43 2002.93 1220.97 2002.93Z" fill="white"/>
<path d="M1222.95 1991.89C1222.17 1991.47 1221.91 1990.74 1222.29 1990.02C1222.37 1989.86 1222.48 1989.72 1222.62 1989.61C1222.75 1989.5 1222.91 1989.42 1223.08 1989.37C1223.25 1989.32 1223.43 1989.31 1223.6 1989.34C1223.78 1989.37 1223.94 1989.43 1224.09 1989.53C1224.15 1989.56 1224.22 1989.59 1224.28 1989.63L1223.27 1991.54C1223.37 1991.61 1223.49 1991.65 1223.61 1991.67C1223.73 1991.69 1223.86 1991.69 1223.98 1991.65C1224.1 1991.62 1224.21 1991.57 1224.31 1991.49C1224.41 1991.41 1224.49 1991.32 1224.55 1991.21C1224.64 1991.06 1224.68 1990.88 1224.66 1990.7C1224.64 1990.53 1224.56 1990.37 1224.43 1990.25L1224.63 1989.86C1224.85 1990.04 1224.99 1990.3 1225.03 1990.58C1225.08 1990.86 1225.02 1991.15 1224.87 1991.39C1224.47 1992.16 1223.69 1992.28 1222.95 1991.89ZM1222.95 1991.37L1223.75 1989.86C1223.65 1989.8 1223.55 1989.77 1223.44 1989.76C1223.33 1989.75 1223.22 1989.76 1223.11 1989.79C1223 1989.82 1222.91 1989.88 1222.82 1989.95C1222.74 1990.03 1222.68 1990.12 1222.63 1990.22C1222.57 1990.31 1222.53 1990.42 1222.52 1990.53C1222.5 1990.64 1222.51 1990.75 1222.54 1990.85C1222.57 1990.96 1222.62 1991.06 1222.68 1991.15C1222.75 1991.24 1222.84 1991.31 1222.93 1991.37H1222.95Z" fill="white"/>
<path d="M1226 1986.61L1226.35 1986.87L1224.75 1989.06L1224.39 1988.8L1226 1986.61Z" fill="white"/>
<path d="M1225.73 1985.08L1226.04 1984.78L1226.27 1985.01C1226.25 1984.86 1226.26 1984.71 1226.31 1984.56C1226.36 1984.42 1226.45 1984.29 1226.56 1984.18C1226.66 1984.06 1226.8 1983.97 1226.96 1983.94C1227.11 1983.91 1227.28 1983.93 1227.42 1984.01C1227.38 1983.82 1227.39 1983.64 1227.45 1983.46C1227.5 1983.28 1227.6 1983.13 1227.73 1983C1228.13 1982.61 1228.57 1982.65 1228.96 1983.06L1230.32 1984.44L1230.01 1984.74L1228.73 1983.44C1228.48 1983.19 1228.23 1983.03 1227.92 1983.34C1227.85 1983.41 1227.79 1983.49 1227.75 1983.57C1227.71 1983.66 1227.69 1983.76 1227.69 1983.85C1227.69 1983.95 1227.71 1984.05 1227.75 1984.13C1227.79 1984.22 1227.85 1984.3 1227.92 1984.36L1229.13 1985.59L1228.82 1985.89L1227.55 1984.6C1227.29 1984.34 1227.05 1984.18 1226.74 1984.49C1226.67 1984.56 1226.61 1984.64 1226.57 1984.72C1226.53 1984.81 1226.51 1984.91 1226.51 1985C1226.51 1985.1 1226.53 1985.2 1226.57 1985.28C1226.61 1985.37 1226.67 1985.45 1226.74 1985.51L1227.98 1986.75L1227.67 1987.05L1225.73 1985.08Z" fill="white"/>
<path d="M1230.38 1983.53C1230.01 1983.01 1230.29 1982.6 1230.79 1982.08C1231.12 1981.73 1231.27 1981.57 1231.11 1981.34C1230.95 1981.12 1230.78 1981.08 1230.41 1981.34C1230.04 1981.61 1229.95 1981.87 1230.16 1982.21L1229.79 1982.47C1229.5 1982.03 1229.54 1981.5 1230.21 1981.03C1230.3 1980.94 1230.41 1980.87 1230.53 1980.82C1230.65 1980.78 1230.78 1980.77 1230.91 1980.78C1231.03 1980.8 1231.16 1980.84 1231.26 1980.91C1231.37 1980.98 1231.46 1981.08 1231.52 1981.19L1232.3 1982.27C1232.42 1982.44 1232.51 1982.51 1232.6 1982.45L1232.65 1982.41L1232.82 1982.65C1232.78 1982.71 1232.73 1982.76 1232.67 1982.8C1232.47 1982.94 1232.3 1982.95 1232.08 1982.69C1232.09 1982.87 1232.05 1983.06 1231.97 1983.23C1231.88 1983.4 1231.75 1983.54 1231.59 1983.64C1231.5 1983.72 1231.4 1983.78 1231.3 1983.81C1231.19 1983.85 1231.07 1983.87 1230.96 1983.86C1230.84 1983.85 1230.73 1983.81 1230.63 1983.75C1230.53 1983.7 1230.44 1983.62 1230.38 1983.53ZM1231.69 1982.17L1231.44 1981.81C1231.34 1982.02 1231.2 1982.21 1231.02 1982.37C1230.65 1982.78 1230.54 1983 1230.72 1983.26C1230.9 1983.52 1231.08 1983.53 1231.37 1983.32C1231.83 1983 1232 1982.58 1231.69 1982.17Z" fill="white"/>
<path d="M1231.93 1978.78L1232.19 1979.25L1231.74 1979.51L1231.48 1979.06L1231.93 1978.78ZM1232.42 1979.71L1233.81 1982.1L1233.43 1982.32L1232.05 1979.93L1232.42 1979.71Z" fill="white"/>
<path d="M1233.28 1978L1235.02 1981.46L1234.64 1981.65L1232.89 1978.2L1233.28 1978Z" fill="white"/>
<path d="M1267.38 2012.45C1268.17 2012.86 1268.43 2013.59 1268.04 2014.31C1267.96 2014.47 1267.85 2014.61 1267.72 2014.72C1267.58 2014.84 1267.42 2014.92 1267.25 2014.97C1267.08 2015.01 1266.91 2015.02 1266.73 2015C1266.56 2014.97 1266.39 2014.91 1266.24 2014.81L1266.06 2014.7L1267.07 2012.79C1266.96 2012.73 1266.85 2012.68 1266.72 2012.66C1266.6 2012.64 1266.48 2012.65 1266.36 2012.68C1266.24 2012.71 1266.12 2012.77 1266.03 2012.84C1265.93 2012.92 1265.85 2013.02 1265.79 2013.13C1265.69 2013.28 1265.65 2013.45 1265.68 2013.63C1265.7 2013.8 1265.78 2013.97 1265.91 2014.09L1265.7 2014.48C1265.49 2014.29 1265.35 2014.04 1265.3 2013.76C1265.26 2013.48 1265.31 2013.19 1265.46 2012.95C1265.87 2012.18 1266.64 2012.05 1267.38 2012.45ZM1267.38 2012.97L1266.59 2014.48C1266.68 2014.53 1266.79 2014.57 1266.9 2014.58C1267.01 2014.59 1267.12 2014.58 1267.23 2014.54C1267.33 2014.51 1267.43 2014.46 1267.51 2014.38C1267.59 2014.31 1267.66 2014.22 1267.71 2014.12C1267.76 2014.03 1267.8 2013.92 1267.81 2013.81C1267.83 2013.71 1267.82 2013.6 1267.79 2013.49C1267.76 2013.38 1267.71 2013.29 1267.65 2013.2C1267.58 2013.11 1267.5 2013.04 1267.4 2012.99L1267.38 2012.97Z" fill="white"/>
<path d="M1264.34 2017.72L1263.99 2017.47L1265.56 2015.28L1265.91 2015.53L1264.34 2017.72Z" fill="white"/>
<path d="M1264.6 2019.26L1264.29 2019.56L1264.06 2019.33C1264.09 2019.48 1264.07 2019.64 1264.02 2019.79C1263.97 2019.94 1263.89 2020.07 1263.77 2020.18C1263.67 2020.31 1263.53 2020.39 1263.38 2020.42C1263.22 2020.45 1263.06 2020.43 1262.92 2020.36C1262.95 2020.53 1262.94 2020.71 1262.88 2020.88C1262.83 2021.05 1262.74 2021.2 1262.61 2021.32C1262.22 2021.72 1261.78 2021.67 1261.38 2021.26L1260.03 2019.89L1260.34 2019.58L1261.6 2020.9C1261.85 2021.15 1262.1 2021.32 1262.41 2021C1262.48 2020.93 1262.54 2020.86 1262.58 2020.77C1262.62 2020.68 1262.64 2020.59 1262.64 2020.49C1262.64 2020.39 1262.62 2020.3 1262.58 2020.21C1262.54 2020.12 1262.48 2020.05 1262.41 2019.98L1261.2 2018.73L1261.51 2018.43L1262.79 2019.72C1263.04 2019.98 1263.29 2020.14 1263.59 2019.83C1263.67 2019.76 1263.72 2019.69 1263.76 2019.6C1263.8 2019.51 1263.82 2019.41 1263.82 2019.32C1263.82 2019.22 1263.8 2019.13 1263.76 2019.04C1263.72 2018.95 1263.67 2018.87 1263.59 2018.81L1262.39 2017.58L1262.69 2017.28L1264.6 2019.26Z" fill="white"/>
<path d="M1259.96 2020.81C1260.32 2021.32 1260.05 2021.73 1259.54 2022.26C1259.21 2022.6 1259.06 2022.77 1259.22 2022.99C1259.38 2023.21 1259.55 2023.25 1259.92 2022.99C1260.3 2022.73 1260.38 2022.47 1260.17 2022.13L1260.54 2021.86C1260.83 2022.31 1260.79 2022.84 1260.12 2023.31C1259.71 2023.61 1259.2 2023.73 1258.81 2023.15L1258.04 2022.07C1257.91 2021.89 1257.82 2021.83 1257.73 2021.89L1257.68 2021.93L1257.51 2021.69C1257.56 2021.63 1257.61 2021.58 1257.66 2021.54C1257.86 2021.4 1258.03 2021.39 1258.25 2021.65C1258.24 2021.46 1258.28 2021.28 1258.37 2021.11C1258.46 2020.94 1258.59 2020.8 1258.75 2020.71C1258.83 2020.63 1258.93 2020.56 1259.04 2020.52C1259.15 2020.49 1259.26 2020.47 1259.38 2020.48C1259.49 2020.49 1259.6 2020.52 1259.7 2020.58C1259.8 2020.64 1259.89 2020.71 1259.96 2020.81ZM1258.65 2022.18L1258.9 2022.56C1259 2022.35 1259.14 2022.16 1259.32 2022.01C1259.69 2021.59 1259.8 2021.37 1259.61 2021.11C1259.43 2020.85 1259.25 2020.84 1258.96 2021.05C1258.52 2021.31 1258.34 2021.75 1258.65 2022.18Z" fill="white"/>
<path d="M1257.91 2024.62L1256.53 2022.23L1256.9 2022.01L1258.29 2024.41L1257.91 2024.62ZM1258.4 2025.55L1258.14 2025.1L1258.59 2024.85L1258.85 2025.3L1258.4 2025.55Z" fill="white"/>
<path d="M1257.05 2026.33L1255.31 2022.88L1255.7 2022.68L1257.44 2026.14L1257.05 2026.33Z" fill="white"/>
<path d="M1234.89 2024.38C1234.47 2025.17 1233.74 2025.43 1233.02 2025.05C1232.86 2024.97 1232.72 2024.86 1232.61 2024.72C1232.5 2024.58 1232.42 2024.43 1232.37 2024.26C1232.32 2024.08 1232.31 2023.91 1232.34 2023.73C1232.37 2023.56 1232.43 2023.39 1232.53 2023.24C1232.57 2023.17 1232.61 2023.09 1232.63 2023.06L1234.54 2024.07C1234.61 2023.96 1234.65 2023.85 1234.67 2023.72C1234.69 2023.6 1234.68 2023.48 1234.65 2023.36C1234.62 2023.24 1234.57 2023.12 1234.49 2023.03C1234.41 2022.93 1234.32 2022.85 1234.21 2022.79C1234.06 2022.69 1233.88 2022.65 1233.7 2022.68C1233.53 2022.7 1233.37 2022.78 1233.24 2022.91L1232.86 2022.7C1233.04 2022.49 1233.3 2022.35 1233.58 2022.3C1233.86 2022.26 1234.15 2022.31 1234.39 2022.46C1235.16 2022.87 1235.28 2023.64 1234.89 2024.38ZM1234.37 2024.38L1232.86 2023.59C1232.8 2023.69 1232.77 2023.79 1232.76 2023.9C1232.75 2024.01 1232.76 2024.12 1232.79 2024.23C1232.82 2024.33 1232.88 2024.43 1232.95 2024.51C1233.03 2024.6 1233.12 2024.66 1233.22 2024.71C1233.31 2024.77 1233.42 2024.8 1233.53 2024.82C1233.64 2024.83 1233.75 2024.83 1233.86 2024.8C1233.96 2024.77 1234.06 2024.72 1234.15 2024.65C1234.24 2024.58 1234.31 2024.5 1234.37 2024.4V2024.38Z" fill="white"/>
<path d="M1229.61 2021.34L1229.87 2020.99L1232.06 2022.56L1231.8 2022.91L1229.61 2021.34Z" fill="white"/>
<path d="M1228.08 2021.6L1227.78 2021.29L1228.01 2021.06C1227.86 2021.08 1227.71 2021.07 1227.56 2021.02C1227.42 2020.97 1227.29 2020.88 1227.18 2020.77C1227.06 2020.67 1226.97 2020.53 1226.94 2020.38C1226.91 2020.22 1226.93 2020.06 1227.01 2019.92C1226.82 2019.95 1226.64 2019.95 1226.46 2019.89C1226.28 2019.83 1226.12 2019.73 1226 2019.6C1225.61 2019.2 1225.65 2018.77 1226.06 2018.37L1227.44 2017.02L1227.74 2017.33L1226.44 2018.6C1226.19 2018.85 1226.03 2019.1 1226.34 2019.41C1226.41 2019.48 1226.49 2019.54 1226.57 2019.58C1226.66 2019.62 1226.76 2019.64 1226.85 2019.64C1226.95 2019.64 1227.05 2019.62 1227.13 2019.58C1227.22 2019.54 1227.3 2019.48 1227.36 2019.41L1228.59 2018.2L1228.89 2018.51L1227.6 2019.79C1227.34 2020.04 1227.18 2020.29 1227.49 2020.6C1227.56 2020.67 1227.64 2020.73 1227.72 2020.77C1227.81 2020.81 1227.91 2020.83 1228 2020.83C1228.1 2020.83 1228.19 2020.81 1228.28 2020.77C1228.37 2020.73 1228.45 2020.67 1228.51 2020.6L1229.75 2019.36L1230.05 2019.67L1228.08 2021.6Z" fill="white"/>
<path d="M1226.53 2016.96C1226.01 2017.32 1225.6 2017.05 1225.08 2016.54C1224.75 2016.21 1224.57 2016.06 1224.33 2016.22C1224.1 2016.38 1224.07 2016.55 1224.33 2016.92C1224.59 2017.3 1224.85 2017.38 1225.2 2017.17L1225.46 2017.55C1225.01 2017.83 1224.49 2017.79 1224.02 2017.13C1223.92 2017.04 1223.85 2016.93 1223.81 2016.81C1223.77 2016.69 1223.75 2016.56 1223.77 2016.43C1223.78 2016.3 1223.83 2016.18 1223.9 2016.07C1223.97 2015.97 1224.06 2015.88 1224.17 2015.81L1225.25 2015.04C1225.43 2014.92 1225.5 2014.83 1225.44 2014.74C1225.42 2014.72 1225.41 2014.7 1225.39 2014.69L1225.64 2014.51C1225.69 2014.56 1225.74 2014.61 1225.79 2014.67C1225.92 2014.86 1225.94 2015.03 1225.67 2015.25C1225.86 2015.24 1226.05 2015.28 1226.22 2015.37C1226.38 2015.46 1226.52 2015.59 1226.62 2015.75C1226.7 2015.83 1226.76 2015.93 1226.8 2016.04C1226.84 2016.15 1226.86 2016.26 1226.85 2016.38C1226.84 2016.49 1226.81 2016.6 1226.75 2016.7C1226.7 2016.8 1226.62 2016.89 1226.53 2016.96ZM1225.16 2015.65L1224.79 2015.9C1225.01 2016 1225.2 2016.14 1225.35 2016.32C1225.76 2016.69 1225.99 2016.8 1226.24 2016.61C1226.5 2016.43 1226.51 2016.25 1226.3 2015.96C1226 2015.52 1225.58 2015.34 1225.16 2015.65Z" fill="white"/>
<path d="M1221.78 2015.4L1222.25 2015.14L1222.51 2015.59L1222.06 2015.85L1221.78 2015.4ZM1222.71 2014.91L1225.1 2013.53L1225.32 2013.91L1222.93 2015.29L1222.71 2014.91Z" fill="white"/>
<path d="M1221 2014.05L1224.46 2012.31L1224.65 2012.7L1221.2 2014.44L1221 2014.05Z" fill="white"/>
<path d="M1255.45 1979.95C1255.86 1979.17 1256.59 1978.91 1257.31 1979.29C1257.47 1979.37 1257.61 1979.48 1257.72 1979.62C1257.84 1979.75 1257.92 1979.91 1257.96 1980.08C1258.01 1980.25 1258.02 1980.43 1258 1980.6C1257.97 1980.78 1257.9 1980.94 1257.81 1981.09C1257.78 1981.15 1257.74 1981.22 1257.7 1981.28L1255.79 1980.27C1255.73 1980.37 1255.68 1980.49 1255.66 1980.61C1255.64 1980.73 1255.65 1980.86 1255.68 1980.98C1255.71 1981.1 1255.77 1981.21 1255.84 1981.31C1255.92 1981.41 1256.02 1981.49 1256.13 1981.55C1256.28 1981.64 1256.45 1981.68 1256.63 1981.66C1256.8 1981.64 1256.97 1981.56 1257.09 1981.43L1257.48 1981.63C1257.29 1981.85 1257.04 1981.99 1256.76 1982.03C1256.48 1982.08 1256.19 1982.02 1255.95 1981.87C1255.18 1981.46 1255.05 1980.69 1255.45 1979.95ZM1255.97 1979.95L1257.48 1980.75C1257.53 1980.65 1257.56 1980.55 1257.58 1980.44C1257.59 1980.33 1257.58 1980.22 1257.54 1980.11C1257.51 1980.01 1257.46 1979.91 1257.38 1979.83C1257.31 1979.74 1257.22 1979.68 1257.12 1979.63C1256.93 1979.52 1256.7 1979.49 1256.49 1979.55C1256.28 1979.6 1256.1 1979.74 1255.98 1979.93L1255.97 1979.95Z" fill="white"/>
<path d="M1260.72 1983L1260.47 1983.35L1258.28 1981.75L1258.53 1981.4L1260.72 1983Z" fill="white"/>
<path d="M1262.26 1982.73L1262.56 1983.04L1262.33 1983.27C1262.48 1983.25 1262.64 1983.26 1262.79 1983.31C1262.94 1983.36 1263.07 1983.44 1263.18 1983.56C1263.31 1983.66 1263.39 1983.8 1263.42 1983.96C1263.45 1984.11 1263.43 1984.28 1263.36 1984.42C1263.53 1984.39 1263.71 1984.4 1263.88 1984.45C1264.05 1984.5 1264.2 1984.6 1264.32 1984.72C1264.71 1985.12 1264.67 1985.56 1264.26 1985.95L1262.89 1987.3L1262.58 1987L1263.9 1985.73C1264.15 1985.48 1264.31 1985.23 1264 1984.92C1263.93 1984.85 1263.86 1984.79 1263.77 1984.75C1263.68 1984.71 1263.59 1984.69 1263.49 1984.69C1263.39 1984.69 1263.3 1984.71 1263.21 1984.75C1263.12 1984.79 1263.05 1984.85 1262.98 1984.92L1261.73 1986.13L1261.43 1985.82L1262.72 1984.54C1262.98 1984.29 1263.14 1984.05 1262.83 1983.74C1262.76 1983.67 1262.69 1983.61 1262.6 1983.57C1262.51 1983.53 1262.41 1983.51 1262.32 1983.51C1262.22 1983.51 1262.13 1983.53 1262.04 1983.57C1261.95 1983.61 1261.87 1983.67 1261.81 1983.74L1260.58 1984.95L1260.29 1984.66L1262.26 1982.73Z" fill="white"/>
<path d="M1263.81 1987.37C1264.32 1987.01 1264.73 1987.29 1265.26 1987.79C1265.6 1988.12 1265.77 1988.27 1265.99 1988.11C1266.21 1987.95 1266.25 1987.78 1265.99 1987.41C1265.73 1987.03 1265.47 1986.95 1265.13 1987.16L1264.86 1986.79C1265.31 1986.5 1265.84 1986.54 1266.31 1987.21C1266.61 1987.62 1266.73 1988.13 1266.15 1988.52L1265.07 1989.29C1264.89 1989.42 1264.83 1989.51 1264.89 1989.6L1264.93 1989.65L1264.69 1989.82C1264.63 1989.78 1264.58 1989.73 1264.54 1989.67C1264.4 1989.47 1264.39 1989.3 1264.65 1989.08C1264.46 1989.09 1264.28 1989.05 1264.11 1988.97C1263.94 1988.88 1263.8 1988.75 1263.71 1988.59C1263.63 1988.5 1263.56 1988.41 1263.52 1988.3C1263.49 1988.19 1263.47 1988.07 1263.48 1987.96C1263.49 1987.84 1263.52 1987.73 1263.58 1987.63C1263.64 1987.53 1263.71 1987.44 1263.81 1987.37ZM1265.18 1988.69L1265.54 1988.43C1265.33 1988.34 1265.14 1988.2 1264.99 1988.02C1264.57 1987.65 1264.35 1987.53 1264.09 1987.72C1263.83 1987.9 1263.82 1988.08 1264.03 1988.37C1264.31 1988.83 1264.75 1989 1265.18 1988.69Z" fill="white"/>
<path d="M1267.62 1989.42L1265.23 1990.81L1265.01 1990.43L1267.4 1989.04L1267.62 1989.42ZM1268.55 1988.93L1268.1 1989.19L1267.85 1988.74L1268.3 1988.48L1268.55 1988.93Z" fill="white"/>
<path d="M1269.33 1990.28L1265.88 1992.02L1265.68 1991.64L1269.14 1989.89L1269.33 1990.28Z" fill="white"/>
<path d="M566.996 1102.57H442.809L393.477 856.21H167.599L121.029 1102.57H0L220.089 18.4265H340.724L566.996 1102.57ZM356.905 673.71L279.025 271.353L202.724 673.71H356.905ZM627.773 18.4265H853.651C898.379 18.4265 931.794 21.9605 953.763 29.2806C975.733 36.3483 995.334 51.2411 1012.7 73.9588C1030.06 96.6769 1044.4 126.715 1055.98 164.578C1067.56 202.188 1073.35 244.595 1073.35 291.293C1073.35 342.029 1066.24 388.727 1052.03 431.134C1037.69 473.541 1018.36 505.346 994.018 526.549C1028.35 545.733 1054.93 578.547 1073.35 624.74C1091.89 671.186 1101.1 725.709 1101.1 788.309C1101.1 837.531 1095.18 885.491 1083.21 932.188C1071.24 978.634 1054.93 1015.99 1034.27 1043.76C1013.62 1071.52 988.099 1088.69 957.71 1095.25C938.766 1099.04 892.854 1101.56 820.105 1102.57H627.773V18.4265ZM741.962 198.907V449.561H816.685C861.15 449.561 888.776 448.299 899.563 445.774C919.033 441.483 934.425 428.61 945.607 407.154C956.789 385.698 962.314 357.427 962.314 322.341C962.314 288.769 957.578 261.507 947.975 240.557C938.24 219.606 923.901 206.984 904.957 202.694C893.643 200.169 861.15 198.907 807.476 198.907H741.962ZM741.962 630.041V919.82H847.468C888.644 919.82 914.692 917.801 925.742 913.258C942.712 907.452 956.526 892.811 967.181 870.093C977.837 847.123 983.231 816.328 983.231 777.96C983.231 745.398 979.021 717.884 970.865 695.166C962.577 672.448 950.738 655.789 935.214 645.439C919.691 635.09 885.881 630.041 834.049 630.041H741.962ZM1174.38 567.189C1174.38 456.629 1182.93 363.99 1200.16 289.022C1213.05 233.994 1230.55 184.267 1252.78 140.346C1275.02 96.6773 1299.35 64.1148 1325.8 42.9116C1361.05 14.1356 1401.57 0 1447.61 0C1530.89 0 1597.45 49.4745 1647.44 148.676C1697.44 247.625 1722.43 385.446 1722.43 561.887C1722.43 737.067 1697.57 873.878 1647.97 972.826C1598.38 1071.52 1532.07 1121 1449.19 1121C1365.13 1121 1298.3 1071.77 1248.71 973.583C1199.11 875.139 1174.38 739.589 1174.38 567.184V567.189ZM1291.86 559.869C1291.86 682.545 1306.72 775.688 1336.19 839.046C1365.79 902.403 1403.28 933.956 1448.8 933.956C1494.18 933.956 1531.55 902.656 1560.75 839.551C1589.82 776.698 1604.43 682.545 1604.43 556.84C1604.43 432.649 1590.22 340.01 1561.93 278.672C1533.52 217.587 1495.76 187.044 1448.8 187.044C1401.7 187.044 1363.82 218.091 1335 279.935C1306.33 341.777 1291.86 434.921 1291.86 559.869ZM1810.7 18.4272H1924.76V605.556C1924.76 698.699 1926.21 759.28 1928.97 786.794C1933.84 831.22 1945.55 866.811 1963.83 893.568C1982.25 920.577 2007.38 933.955 2039.21 933.955C2071.57 933.955 2096.04 921.334 2112.49 895.84C2128.93 870.597 2138.8 839.298 2142.09 802.444C2145.51 765.338 2147.09 704 2147.09 618.177V18.4253H2261.14V587.888C2261.14 718.137 2258.12 810.018 2251.93 863.783C2245.75 917.549 2234.44 962.732 2217.86 999.838C2201.29 1036.69 2179.05 1066.22 2151.43 1088.19C2123.67 1110.15 2087.36 1121 2042.63 1121C1988.7 1121 1947.78 1109.14 1919.89 1085.16C1892 1061.18 1870.03 1030.13 1853.85 992.013C1837.67 953.897 1827.02 913.763 1821.89 871.861C1814.39 809.766 1810.7 718.137 1810.7 596.723V18.4272ZM2508.6 1102.57V201.936H2341V18.4261H2789.99V201.936H2622.78V1102.57H2508.6ZM2862.08 1102.57V18.4272H3032.83L3135.32 758.019L3236.61 18.4272H3407.76V1102.57H3301.86V249.139L3189.65 1102.57H3079.8L2967.98 249.139V1102.57H2862.08ZM3521.16 1102.57V18.4272H3940.03V201.937H3635.22V442.241H3918.85V624.741H3635.22V919.821H3950.82V1102.57H3521.16Z" fill="#373435"/>
</svg>
