<svg width="213" height="213" viewBox="0 0 213 213" fill="none" xmlns="http://www.w3.org/2000/svg">
<rect width="213" height="213" fill="white"/>
<path d="M106.5 21.3C108.461 21.3 110.05 19.7106 110.05 17.75C110.05 15.7894 108.461 14.2 106.5 14.2C104.539 14.2 102.95 15.7894 102.95 17.75C102.95 19.7106 104.539 21.3 106.5 21.3Z" fill="#112969"/>
<path d="M195.25 110.05C197.211 110.05 198.8 108.461 198.8 106.5C198.8 104.539 197.211 102.95 195.25 102.95C193.289 102.95 191.7 104.539 191.7 106.5C191.7 108.461 193.289 110.05 195.25 110.05Z" fill="#112969"/>
<path d="M17.75 110.05C19.7106 110.05 21.3 108.461 21.3 106.5C21.3 104.539 19.7106 102.95 17.75 102.95C15.7894 102.95 14.2 104.539 14.2 106.5C14.2 108.461 15.7894 110.05 17.75 110.05Z" fill="#112969"/>
<path d="M106.5 198.8C108.461 198.8 110.05 197.211 110.05 195.25C110.05 193.289 108.461 191.7 106.5 191.7C104.539 191.7 102.95 193.289 102.95 195.25C102.95 197.211 104.539 198.8 106.5 198.8Z" fill="#112969"/>
<mask id="mask0_0_1" style="mask-type:luminance" maskUnits="userSpaceOnUse" x="12" y="6" width="189" height="195">
<path d="M201 6H12V201H201V6Z" fill="white"/>
</mask>
<g mask="url(#mask0_0_1)">
<path d="M12.9385 79.2094L14.7508 79.7229L14.2373 81.5352L12.425 81.0217L12.9385 79.2094ZM16.5783 80.3874L26.2137 83.1059L25.7909 84.6162L16.1554 81.8976L16.5783 80.3874Z" fill="white"/>
<path d="M17.7262 76.4471L18.3001 74.9368L19.4176 75.3748C19.1077 74.8287 18.9311 74.2172 18.9022 73.5899C18.8734 72.9626 18.993 72.3375 19.2515 71.7652C19.364 71.3293 19.5724 70.9238 19.8617 70.5788C20.151 70.2337 20.5139 69.9577 20.9235 69.771C21.3334 69.5843 21.7796 69.4914 22.2297 69.4994C22.6801 69.5072 23.1227 69.6158 23.5257 69.817L30.05 72.3391L29.4762 73.8494L23.3294 71.448C23.0629 71.2996 22.7669 71.2128 22.4624 71.194C22.1582 71.1752 21.8536 71.2247 21.571 71.3392C21.2885 71.4537 21.0352 71.6301 20.8298 71.8554C20.6244 72.0808 20.4721 72.3492 20.3843 72.6412C20.2155 72.9754 20.1184 73.3412 20.099 73.7152C20.0799 74.089 20.139 74.4628 20.2726 74.8127C20.4063 75.1624 20.6115 75.4805 20.8752 75.7463C21.139 76.0121 21.4553 76.2199 21.8039 76.3564L27.6185 78.6068L27.0597 80.1169L17.7262 76.4471Z" fill="white"/>
<path d="M32.5569 61.5705C34.2183 62.4615 34.5656 64.3343 33.3423 66.5847C31.9679 69.1219 29.8535 69.7412 28.0262 68.8047L28.8114 67.2945C29.9139 67.808 31.1523 67.6721 32.1341 65.8598C33.1158 64.0473 32.4965 63.3526 31.8169 62.9901C30.6086 62.3256 29.8083 63.5187 28.9776 64.5005C27.8146 65.8598 26.395 67.4305 24.5676 66.4336C23.0572 65.6331 22.7402 63.9114 23.8427 61.9028C25.0811 59.6223 26.9539 59.1238 28.5548 59.8186L27.7693 61.3289C27.0143 61.0872 25.9571 60.9665 25.0509 62.5975C24.3864 63.8359 24.5978 64.6515 25.3076 65.0291C26.3195 65.5879 27.0143 64.5156 27.9807 63.4433C29.189 62.0387 30.5483 60.5133 32.5569 61.5705Z" fill="white"/>
<path d="M28.4641 54.7122L25.7002 52.8847L26.5913 51.5859L29.3551 53.4587L30.4576 51.8426L31.5904 52.613L30.5483 54.2289L35.5321 57.627C36.4081 58.2312 36.7705 58.1707 37.269 57.4457C37.4275 57.2148 37.5689 56.9725 37.6918 56.7208L38.7944 57.4759C38.6492 57.797 38.4776 58.1052 38.2809 58.3973C37.4502 59.6056 36.4534 60.1643 34.5807 58.8805L29.6572 55.5277L28.8265 56.751L27.6937 55.9808L28.4641 54.7122Z" fill="white"/>
<path d="M37.8126 54.274C36.0607 52.7637 36.68 51.1024 37.9939 48.8068C38.8547 47.2965 39.2172 46.5716 38.4621 45.9374C37.7069 45.303 37.0576 45.3181 35.9853 46.5716C34.913 47.8251 34.8374 48.8068 35.8795 49.8338L34.8223 51.0873C33.4177 49.7733 33.0704 47.8856 34.9884 45.6353C35.2204 45.2334 35.5421 44.8905 35.9279 44.6331C36.314 44.3755 36.754 44.2105 37.2141 44.1506C37.6744 44.0908 38.1421 44.1377 38.581 44.2877C39.02 44.4378 39.4187 44.6871 39.7458 45.016L43.4158 48.1272C44.0198 48.6407 44.3975 48.8068 44.6542 48.5047C44.7035 48.4422 44.749 48.3766 44.7902 48.3084L45.6207 49.0182C45.5083 49.2486 45.3717 49.4662 45.213 49.6677C44.6542 50.3323 44.0502 50.5135 43.0382 49.7884C43.2383 50.4414 43.2598 51.136 43.1005 51.8C42.9411 52.464 42.6067 53.0732 42.1321 53.5642C41.9125 53.9155 41.6207 54.2158 41.276 54.4455C40.9313 54.675 40.5415 54.8285 40.1329 54.8958C39.7241 54.9629 39.3058 54.9421 38.9057 54.8349C38.5056 54.7277 38.133 54.5365 37.8126 54.274ZM41.2107 48.233L39.9874 47.206C39.8471 48.028 39.5331 48.8106 39.0661 49.5016C38.1298 51.2535 37.9335 52.1747 38.8246 52.9298C39.7156 53.6851 40.3347 53.5491 41.1654 52.5523C42.3888 51.1477 42.6303 49.5016 41.2107 48.2631V48.233Z" fill="white"/>
<path d="M51.1333 41.1195C51.2203 41.7373 51.1449 42.3673 50.9145 42.9472C50.6841 43.5273 50.3067 44.0372 49.8193 44.427C47.9919 46.0882 45.4396 46.2544 43.2195 43.8077C40.9993 41.3611 41.4223 38.839 43.2195 37.1777C43.6567 36.7434 44.1936 36.4228 44.7834 36.2437C45.3731 36.0648 45.9975 36.0329 46.6024 36.1507L45.7717 35.2295L46.9347 34.1723L53.2024 41.0289C55.1205 43.1433 54.7126 45.3935 52.6588 47.2814C50.6047 49.1693 48.6565 49.1542 47.2972 47.8703L48.5205 46.7679C49.3512 47.3872 50.4084 47.4626 51.7373 46.2544C53.0665 45.0461 53.444 43.6265 52.1452 42.2068L51.1333 41.1195ZM44.4277 42.6298C45.7416 44.14 47.4482 44.5931 48.9586 43.2188C50.4688 41.8444 50.4688 40.3189 48.8377 38.5823C47.2067 36.8455 45.6209 36.7547 44.2314 37.9932C42.8419 39.2316 43.1137 41.1195 44.4277 42.6298Z" fill="white"/>
<path d="M51.5865 30.6692L52.7495 32.2851C52.5196 31.6861 52.4864 31.0295 52.6547 30.4104C52.8231 29.7912 53.1841 29.2419 53.6858 28.8416C53.9352 28.6613 54.1977 28.4997 54.471 28.3585L55.3924 29.6271C55.1911 29.7197 54.9991 29.831 54.8184 29.9593C54.4737 30.2124 54.1845 30.5335 53.9687 30.9031C53.753 31.2725 53.6155 31.6821 53.5645 32.1069C53.5136 32.5315 53.5503 32.9623 53.6725 33.3721C53.7946 33.7822 53.9996 34.1625 54.2747 34.49L57.3859 38.8397L56.1022 39.7458L50.2877 31.5904L51.5865 30.6692Z" fill="white"/>
<path d="M60.1043 33.736C58.9717 31.7425 60.1043 30.3681 62.1433 28.6615C63.4722 27.5439 64.0612 26.9852 63.578 26.1394C63.0947 25.2936 62.4754 25.0671 61.0406 25.8827C59.6059 26.6981 59.1831 27.5892 59.8173 28.9032L58.3826 29.7187C57.5217 27.9971 57.854 26.1092 60.4215 24.6594C62.0375 23.738 63.8952 23.5871 65.1033 25.7166L67.4896 29.8999C67.8671 30.5795 68.1692 30.8665 68.5166 30.6702L68.6978 30.5493L69.2415 31.5009C69.0599 31.6765 68.8569 31.8288 68.6373 31.9539C67.8822 32.392 67.248 32.3616 66.5533 31.3348C66.5231 32.0175 66.3076 32.6792 65.9297 33.2486C65.5518 33.818 65.0261 34.2737 64.4085 34.5667C64.0809 34.8212 63.7024 35.003 63.299 35.0996C62.8953 35.1961 62.4757 35.2054 62.0682 35.1267C61.6608 35.0481 61.2748 34.8834 60.9361 34.6436C60.5974 34.4038 60.3138 34.0944 60.1043 33.736ZM65.3601 29.2051L64.5747 27.8159C64.162 28.5438 63.5949 29.1727 62.9134 29.6583C61.4031 30.9874 60.935 31.7878 61.4938 32.7846C62.0526 33.7813 62.7171 33.8871 63.8347 33.2527C65.481 32.3767 66.3115 30.9269 65.3601 29.2657V29.2051Z" fill="white"/>
<path d="M67.6103 21.0474L69.1206 20.5037L69.5283 21.6213C69.6666 21.0666 69.9424 20.5558 70.3306 20.136C70.7187 19.7162 71.2063 19.4011 71.7485 19.2199C72.2748 18.9691 72.8716 18.9073 73.4381 19.0449C74.0049 19.1824 74.5069 19.5108 74.8597 19.9751C75.0051 19.331 75.3115 18.7342 75.7497 18.2404C76.1881 17.7465 76.7444 17.3717 77.3667 17.1509C79.2697 16.441 80.6138 17.2264 81.3387 19.1897L83.7702 25.7443L82.2601 26.3032L79.9645 20.1109C79.5113 18.8876 78.9073 18.0269 77.4422 18.6008C77.1065 18.7058 76.797 18.8814 76.5343 19.1155C76.2717 19.3496 76.0619 19.637 75.9191 19.9585C75.7762 20.2799 75.7034 20.6282 75.7057 20.98C75.7078 21.3318 75.785 21.6791 75.932 21.9988L78.1067 27.8586L76.5964 28.4025L74.3462 22.1801C73.8931 20.9718 73.3041 20.0958 71.824 20.6699C71.4883 20.775 71.1787 20.9503 70.916 21.1845C70.6535 21.4186 70.4437 21.7059 70.3008 22.0276C70.1579 22.349 70.0852 22.6973 70.0875 23.0491C70.0896 23.4009 70.1668 23.7483 70.3138 24.0679L72.4885 29.9278L70.9782 30.4714L67.6103 21.0474Z" fill="white"/>
<path d="M196.422 132.596L186.787 129.893L187.209 128.382L196.844 131.086L196.422 132.596ZM200.062 133.774L198.189 133.246L198.702 131.433L200.515 131.931L200.062 133.774Z" fill="white"/>
<path d="M195.259 136.586L194.686 138.096L193.567 137.673C193.881 138.218 194.061 138.829 194.093 139.456C194.123 140.084 194.006 140.71 193.748 141.283C193.635 141.72 193.425 142.125 193.134 142.47C192.843 142.815 192.477 143.09 192.066 143.276C191.656 143.461 191.207 143.552 190.756 143.542C190.305 143.531 189.861 143.42 189.46 143.216L182.949 140.679L183.508 139.169L189.655 141.555C189.923 141.718 190.225 141.817 190.537 141.845C190.85 141.872 191.166 141.827 191.457 141.713C191.75 141.599 192.012 141.419 192.224 141.188C192.435 140.956 192.589 140.678 192.676 140.377C192.843 140.042 192.937 139.677 192.957 139.303C192.974 138.93 192.914 138.557 192.781 138.208C192.648 137.859 192.444 137.541 192.181 137.275C191.918 137.009 191.604 136.8 191.256 136.662L185.427 134.396L186 132.886L195.259 136.586Z" fill="white"/>
<path d="M180.443 151.371C178.782 150.464 178.434 148.607 179.658 146.356C181.032 143.819 183.132 143.2 184.975 144.136L184.188 145.647C183.086 145.133 181.847 145.269 180.865 147.157C179.884 149.045 180.503 149.664 181.183 150.026C182.392 150.691 183.192 149.483 184.023 148.516C185.186 147.157 186.606 145.586 188.432 146.583C189.943 147.383 190.26 149.105 189.158 151.114C187.919 153.394 186.031 153.893 184.446 153.198L185.23 151.688C185.986 151.914 187.042 152.05 187.933 150.419C188.613 149.166 188.402 148.365 187.692 147.972C186.68 147.429 185.986 148.501 185.019 149.573C183.81 150.963 182.392 152.488 180.443 151.371Z" fill="white"/>
<path d="M184.596 158.241L187.344 160.114L186.469 161.413L183.705 159.54L182.603 161.156L181.471 160.386L182.573 158.755L177.589 155.372C176.713 154.768 176.335 154.828 175.852 155.553C175.691 155.777 175.55 156.015 175.429 156.263L174.326 155.523C174.457 155.198 174.625 154.889 174.825 154.602C175.655 153.378 176.652 152.835 178.54 154.118L183.388 157.411L184.218 156.187L185.367 156.958L184.596 158.241Z" fill="white"/>
<path d="M175.187 158.727C176.939 160.237 176.305 161.898 175.006 164.194C174.145 165.704 173.783 166.429 174.538 167.063C175.293 167.698 175.942 167.683 176.999 166.429C178.057 165.176 178.162 164.179 177.105 163.167L178.178 161.913C179.582 163.227 179.914 165.115 178.011 167.365C177.779 167.769 177.455 168.113 177.067 168.371C176.679 168.628 176.237 168.793 175.775 168.851C175.313 168.91 174.844 168.861 174.404 168.708C173.964 168.555 173.565 168.302 173.239 167.97L169.569 164.858C168.98 164.36 168.602 164.194 168.346 164.496C168.294 164.552 168.249 164.612 168.21 164.677L167.364 163.967C167.476 163.738 167.619 163.525 167.787 163.333C168.346 162.668 168.95 162.472 169.946 163.197C169.738 162.548 169.712 161.853 169.872 161.19C170.032 160.526 170.371 159.92 170.853 159.437C171.072 159.083 171.365 158.78 171.71 158.549C172.056 158.318 172.448 158.164 172.859 158.097C173.269 158.029 173.689 158.051 174.091 158.159C174.493 158.268 174.866 158.462 175.187 158.727ZM171.789 164.768L173.012 165.795C173.14 164.965 173.455 164.174 173.934 163.484C174.87 161.747 175.066 160.826 174.175 160.071C173.284 159.316 172.665 159.452 171.819 160.448C170.611 161.853 170.324 163.454 171.789 164.738V164.768Z" fill="white"/>
<path d="M161.852 171.957C161.766 171.341 161.842 170.714 162.072 170.136C162.303 169.559 162.679 169.052 163.165 168.664C164.993 167.003 167.545 166.837 169.765 169.284C171.985 171.73 171.563 174.252 169.765 175.914C169.33 176.345 168.795 176.663 168.208 176.839C167.62 177.016 166.999 177.045 166.398 176.925L167.228 177.846L166.065 178.904L159.782 171.972C157.88 169.857 158.272 167.607 160.341 165.719C162.41 163.831 164.328 163.847 165.703 165.13L164.479 166.233C163.649 165.614 162.577 165.538 161.262 166.746C159.949 167.954 159.556 169.374 160.84 170.794L161.852 171.957ZM168.572 170.356C167.258 168.846 165.552 168.408 164.041 169.782C162.531 171.156 162.531 172.667 164.162 174.418C165.793 176.17 167.379 176.246 168.693 174.992C170.007 173.739 169.886 171.821 168.572 170.356Z" fill="white"/>
<path d="M161.398 182.33L160.251 180.715C160.479 181.314 160.51 181.973 160.339 182.591C160.167 183.21 159.803 183.759 159.299 184.158C159.052 184.341 158.789 184.502 158.514 184.641L157.608 183.372C157.802 183.276 157.989 183.164 158.167 183.04C158.512 182.788 158.803 182.468 159.02 182.099C159.237 181.73 159.376 181.32 159.429 180.896C159.481 180.471 159.445 180.04 159.325 179.63C159.203 179.218 159 178.837 158.725 178.508L155.614 174.159L156.898 173.253L162.712 181.409L161.398 182.33Z" fill="white"/>
<path d="M152.88 179.264C154.013 181.258 152.88 182.632 150.826 184.339C149.497 185.456 148.908 186.015 149.407 186.861C149.905 187.706 150.509 187.933 151.944 187.117C153.379 186.302 153.787 185.411 153.152 184.098L154.662 183.281C155.538 185.003 155.206 186.892 152.639 188.342C151.023 189.263 149.165 189.414 147.957 187.284L145.51 183.086C145.118 182.39 144.831 182.119 144.483 182.316C144.411 182.342 144.344 182.383 144.287 182.436L143.819 181.575C144.005 181.394 144.213 181.236 144.438 181.107C145.193 180.684 145.812 180.715 146.522 181.74C146.549 181.057 146.763 180.395 147.141 179.825C147.52 179.254 148.047 178.799 148.667 178.51C148.987 178.267 149.355 178.093 149.746 177.999C150.137 177.906 150.543 177.894 150.939 177.965C151.335 178.036 151.711 178.189 152.045 178.412C152.379 178.636 152.664 178.925 152.88 179.264ZM147.625 183.796L148.41 185.184C148.823 184.456 149.39 183.828 150.071 183.342C151.582 182.014 152.05 181.213 151.476 180.2C150.902 179.188 150.268 179.113 149.15 179.747C147.519 180.624 146.688 182.058 147.64 183.736L147.625 183.796Z" fill="white"/>
<path d="M145.329 191.934L143.819 192.493L143.411 191.361C143.272 191.913 142.997 192.421 142.612 192.84C142.227 193.26 141.744 193.576 141.206 193.763C140.686 194.02 140.094 194.091 139.528 193.965C138.962 193.837 138.456 193.521 138.095 193.067C137.943 193.69 137.64 194.267 137.214 194.746C136.787 195.225 136.25 195.593 135.648 195.816C133.76 196.526 132.416 195.816 131.692 193.777L129.245 187.223L130.755 186.664L133.051 192.856C133.504 194.064 134.093 194.939 135.573 194.366C135.907 194.26 136.215 194.082 136.476 193.848C136.738 193.613 136.946 193.326 137.089 193.005C137.232 192.685 137.305 192.337 137.304 191.986C137.303 191.634 137.228 191.288 137.083 190.969L134.908 185.108L136.419 184.565L138.714 190.757C139.167 191.964 139.771 192.841 141.236 192.266C141.572 192.163 141.881 191.989 142.143 191.757C142.406 191.524 142.616 191.239 142.759 190.917C142.902 190.598 142.975 190.25 142.973 189.9C142.971 189.549 142.894 189.203 142.747 188.883L140.421 183.084L141.931 182.541L145.329 191.934Z" fill="white"/>
<path d="M79.2094 200.062L79.7229 198.25L81.5352 198.765L81.0217 200.577L79.2094 200.062ZM80.4025 196.423L83.1059 186.787L84.6162 187.211L81.8976 196.846L80.4025 196.423Z" fill="white"/>
<path d="M76.4001 195.261L74.8899 194.686L75.3127 193.583C74.7655 193.89 74.1542 194.064 73.5276 194.093C72.901 194.123 72.2764 194.004 71.7033 193.75C71.2684 193.631 70.8656 193.416 70.5243 193.122C70.183 192.829 69.9119 192.461 69.7309 192.048C69.5498 191.636 69.4636 191.187 69.4781 190.738C69.4927 190.287 69.608 189.845 69.8154 189.446L72.3526 182.935L73.8629 183.51L71.4615 189.657C71.2986 189.925 71.1999 190.229 71.1732 190.543C71.1468 190.855 71.1929 191.171 71.3085 191.462C71.4241 191.755 71.6058 192.018 71.8392 192.227C72.0728 192.438 72.3518 192.593 72.6547 192.678C72.9889 192.847 73.3547 192.942 73.7287 192.962C74.1025 192.982 74.4763 192.923 74.8262 192.788C75.176 192.655 75.4939 192.449 75.7598 192.186C76.0256 191.922 76.2334 191.606 76.3699 191.258L78.6353 185.443L80.1457 186.002L76.4001 195.261Z" fill="white"/>
<path d="M61.5694 180.445C62.4605 178.783 64.3333 178.435 66.5836 179.658C69.1208 181.034 69.7401 183.148 68.8036 184.975L67.2934 184.19C67.807 183.088 67.671 181.849 65.8585 180.867C64.0463 179.886 63.3515 180.505 62.9891 181.185C62.3245 182.392 63.5177 183.192 64.4994 184.023C65.8585 185.186 67.4292 186.606 66.4326 188.434C65.632 189.945 63.9103 190.26 61.9017 189.158C59.6212 187.919 59.1228 186.047 59.8175 184.446L61.3278 185.232C61.1012 185.986 60.9805 187.044 62.6115 187.935C63.8499 188.615 64.6656 188.404 65.0431 187.694C65.6019 186.682 64.5296 185.986 63.4573 185.021C62.0377 183.812 60.5122 182.392 61.5694 180.445Z" fill="white"/>
<path d="M54.7126 184.598L52.8249 187.346L51.541 186.471L53.4138 183.707L51.7979 182.605L52.568 181.471L54.184 182.575L57.5822 177.591C58.1863 176.714 58.1259 176.352 57.401 175.853C57.1715 175.692 56.929 175.551 56.6761 175.43L57.4312 174.328C57.7551 174.467 58.0638 174.639 58.3524 174.841C59.5607 175.657 60.1194 176.669 58.8357 178.542L55.4829 183.466L56.7063 184.281L55.9359 185.429L54.7126 184.598Z" fill="white"/>
<path d="M54.2596 175.186C52.7494 176.938 51.1031 176.304 48.8075 175.005C47.2974 174.144 46.5724 173.782 45.9381 174.537C45.3037 175.292 45.3188 175.941 46.5724 176.999C47.826 178.056 48.8075 178.162 49.8345 177.104L51.088 178.176C49.7742 179.582 47.8863 179.914 45.636 178.011C44.2163 176.802 43.4311 175.111 45.0168 173.238L48.1279 169.568C48.6414 168.979 48.8075 168.602 48.5056 168.345L48.3091 168.209L49.0189 167.363C49.2527 167.476 49.471 167.618 49.6684 167.786C50.333 168.345 50.5142 168.949 49.7893 169.946C50.4414 169.739 51.1377 169.714 51.803 169.874C52.4685 170.033 53.0776 170.372 53.5649 170.852C53.9193 171.071 54.2225 171.363 54.4536 171.71C54.6847 172.056 54.8384 172.449 54.9045 172.86C54.9703 173.271 54.9469 173.692 54.8356 174.093C54.7243 174.495 54.528 174.868 54.2596 175.186ZM48.2186 171.788L47.1916 173.012C48.0155 173.145 48.7997 173.459 49.4872 173.933C51.2391 174.869 52.1603 175.065 52.9156 174.174C53.6707 173.283 53.5196 172.664 52.5379 171.833C51.1486 170.61 49.5023 170.323 48.2638 171.788H48.2186Z" fill="white"/>
<path d="M41.1202 161.851C41.7381 161.764 42.368 161.839 42.9479 162.07C43.5278 162.3 44.0378 162.678 44.4275 163.165C46.0889 164.992 46.2551 167.545 43.8084 169.765C41.3618 171.985 38.8397 171.562 37.1783 169.765C36.7453 169.33 36.4253 168.795 36.2464 168.208C36.0673 167.621 36.0346 166.999 36.1512 166.397L35.23 167.228L34.1728 166.065L41.1051 159.782C43.2195 157.879 45.4696 158.272 47.3575 160.341C49.2454 162.41 49.2303 164.343 47.9465 165.702L46.844 164.479C47.4633 163.648 47.5388 162.591 46.3305 161.262C45.1223 159.933 43.7026 159.555 42.283 160.854L41.1202 161.851ZM42.6304 168.572C44.1407 167.258 44.5937 165.551 43.2195 164.041C41.8451 162.531 40.3197 162.531 38.5828 164.162C36.846 165.793 36.7404 167.378 37.9939 168.692C39.2474 170.006 41.1202 169.886 42.6304 168.572Z" fill="white"/>
<path d="M30.669 161.398L32.2851 160.251C31.6861 160.481 31.0293 160.514 30.4104 160.345C29.7912 160.177 29.2417 159.816 28.8416 159.314C28.657 159.065 28.4903 158.802 28.3432 158.529L29.6269 157.608C29.7197 157.804 29.831 157.991 29.9592 158.167C30.2112 158.512 30.5316 158.803 30.9004 159.02C31.2693 159.237 31.6788 159.376 32.1034 159.429C32.5281 159.481 32.9593 159.445 33.3696 159.325C33.7802 159.203 34.1615 159 34.49 158.725L38.8397 155.614L39.7458 156.898L31.5904 162.712L30.669 161.398Z" fill="white"/>
<path d="M33.7349 152.88C31.7263 154.012 30.3671 152.88 28.6604 150.826C27.5428 149.497 26.9841 148.923 26.1383 149.406C25.2925 149.889 25.066 150.509 25.8814 151.943C26.6971 153.378 27.5881 153.801 28.9021 153.167L29.7176 154.677C27.9958 155.538 26.1081 155.206 24.6581 152.638C23.7369 151.022 23.5858 149.164 25.7155 147.956L29.8988 145.57C30.5785 145.193 30.8655 144.89 30.6692 144.543L30.5483 144.286L31.5148 143.758C31.6861 143.943 31.8378 144.146 31.9679 144.362C32.406 145.117 32.3756 145.751 31.3488 146.446C32.0306 146.479 32.6909 146.696 33.2598 147.074C33.8287 147.451 34.285 147.975 34.5807 148.591C34.8321 148.919 35.0106 149.297 35.1045 149.7C35.1986 150.102 35.2057 150.52 35.1258 150.926C35.0458 151.332 34.8803 151.716 34.6405 152.053C34.4007 152.389 34.0921 152.671 33.7349 152.88ZM29.2041 147.624L27.8146 148.409C28.5427 148.822 29.1716 149.389 29.6572 150.071C30.9862 151.581 31.7867 152.049 32.7835 151.475C33.7802 150.901 33.886 150.267 33.2365 149.149C32.3756 147.518 30.9258 146.688 29.2646 147.639L29.2041 147.624Z" fill="white"/>
<path d="M21.0487 145.329L20.505 143.819L21.6225 143.411C21.0746 143.278 20.5682 143.012 20.1489 142.635C19.7297 142.257 19.4109 141.782 19.2213 141.251C18.9705 140.725 18.9085 140.128 19.0461 139.561C19.1837 138.995 19.5122 138.493 19.9764 138.14C19.3351 137.999 18.7399 137.697 18.2461 137.264C17.7523 136.831 17.376 136.28 17.1522 135.663C16.4423 133.775 17.2277 132.431 19.1909 131.706L25.7457 129.26L26.3044 130.77L20.1123 133.065C18.889 133.519 18.0281 134.107 18.602 135.588C18.7071 135.923 18.8826 136.233 19.1167 136.496C19.3509 136.758 19.6382 136.968 19.9597 137.111C20.2811 137.254 20.6296 137.326 20.9814 137.324C21.3332 137.322 21.6804 137.245 22.0001 137.098L27.845 134.923L28.4037 136.433L22.2116 138.744C21.0034 139.197 20.1274 139.786 20.7013 141.251C20.8064 141.587 20.9819 141.896 21.216 142.159C21.4502 142.422 21.7375 142.631 22.059 142.774C22.3804 142.917 22.7287 142.99 23.0807 142.988C23.4325 142.985 23.7797 142.908 24.0994 142.761L29.9593 140.587L30.503 142.097L21.0487 145.329Z" fill="white"/>
<path d="M132.598 16.5783L129.894 26.2137L128.384 25.7909L131.087 16.1554L132.598 16.5783ZM133.776 12.9385L133.247 14.7508L131.435 14.2373L131.963 12.425L133.776 12.9385Z" fill="white"/>
<path d="M136.585 17.7396L138.095 18.2985L137.672 19.416C138.218 19.1061 138.83 18.9295 139.457 18.9006C140.084 18.8716 140.709 18.9914 141.282 19.2499C141.718 19.3635 142.124 19.5736 142.469 19.8647C142.814 20.1558 143.089 20.5204 143.274 20.9319C143.46 21.3433 143.551 21.7911 143.541 22.2422C143.53 22.6934 143.419 23.1366 143.215 23.539L140.677 30.0483L139.167 29.4744L141.553 23.3276C141.702 23.0624 141.789 22.767 141.809 22.4637C141.829 22.1602 141.781 21.8561 141.668 21.5737C141.555 21.2913 141.38 21.0378 141.157 20.8318C140.933 20.6257 140.666 20.4721 140.376 20.3825C140.041 20.2137 139.675 20.1166 139.301 20.0974C138.927 20.0783 138.554 20.1374 138.204 20.271C137.854 20.4047 137.536 20.6099 137.27 20.8736C137.004 21.1372 136.797 21.4535 136.66 21.8023L134.395 27.6169L132.884 27.0579L136.585 17.7396Z" fill="white"/>
<path d="M151.37 32.5563C150.464 34.2176 148.607 34.5649 146.356 33.3416C143.819 31.9672 143.2 29.8528 144.136 28.0104L145.646 28.8107C145.133 29.9134 145.269 31.1518 147.157 32.1334C149.044 33.1151 149.664 32.4958 150.026 31.8163C150.676 30.6081 149.483 29.8076 148.516 28.9769C147.157 27.8141 145.586 26.3944 146.583 24.5669C147.383 23.0567 149.105 22.7395 151.114 23.842C153.394 25.0804 153.893 26.9532 153.198 28.5541L151.687 27.7686C151.914 27.0136 152.05 25.9564 150.419 25.0502C149.165 24.3857 148.365 24.5971 147.972 25.3069C147.428 26.3188 148.501 27.0136 149.483 27.9651C150.963 29.1885 152.488 30.5476 151.37 32.5563Z" fill="white"/>
<path d="M158.242 28.4632L160.115 25.6993L161.414 26.5904L159.541 29.3542L161.157 30.4567L160.387 31.5895L158.755 30.5474L155.373 35.5312C154.768 36.4072 154.829 36.7697 155.554 37.2681C155.781 37.4234 156.019 37.5645 156.264 37.6909L155.524 38.7935C155.201 38.6519 154.892 38.4799 154.602 38.28C153.379 37.4493 152.835 36.4525 154.119 34.5798L157.411 29.5958L156.203 28.7653L156.973 27.6325L158.242 28.4632Z" fill="white"/>
<path d="M158.725 37.8134C160.235 36.0614 161.897 36.6806 164.192 37.9946C165.703 38.8555 166.428 39.2179 167.062 38.4627C167.696 37.7076 167.681 37.0581 166.428 35.9858C165.174 34.9135 164.177 34.8381 163.165 35.8802L161.912 34.823C163.226 33.4185 165.114 33.0711 167.364 34.9892C167.765 35.2226 168.106 35.5449 168.362 35.9317C168.618 36.3183 168.782 36.7587 168.84 37.2187C168.899 37.6786 168.85 38.146 168.699 38.5844C168.548 39.0227 168.298 39.4203 167.968 39.7465L164.857 43.4165C164.359 44.0205 164.192 44.3981 164.494 44.6549L164.676 44.7907L163.966 45.6214C163.738 45.5055 163.52 45.369 163.317 45.2137C162.667 44.6549 162.471 44.0507 163.196 43.0388C162.545 43.2394 161.853 43.261 161.191 43.1016C160.529 42.942 159.923 42.6075 159.435 42.1326C159.084 41.9133 158.783 41.6214 158.554 41.2766C158.324 40.9319 158.171 40.5422 158.104 40.1335C158.036 39.7249 158.057 39.3065 158.164 38.9064C158.271 38.5063 158.463 38.1337 158.725 37.8134ZM164.766 41.1963L165.793 39.9881C164.967 39.8447 164.181 39.5308 163.483 39.0669C161.746 38.1306 160.809 37.9341 160.069 38.81C159.329 39.686 159.45 40.3204 160.447 41.1662C161.851 42.3895 163.452 42.6311 164.736 41.1963H164.766Z" fill="white"/>
<path d="M171.955 51.1346C171.34 51.2203 170.712 51.1441 170.135 50.9137C169.558 50.6833 169.05 50.3067 168.663 49.8205C167.002 47.9932 166.836 45.4256 169.282 43.2207C171.729 41.0156 174.251 41.4235 175.912 43.2207C176.345 43.6586 176.664 44.1963 176.84 44.7861C177.016 45.3759 177.045 46 176.924 46.6037L177.846 45.773L178.902 46.936L171.971 53.2037C169.856 55.1216 167.606 54.7138 165.718 52.6598C163.83 50.606 163.845 48.6577 165.129 47.2984L166.231 48.5218C165.612 49.3525 165.537 50.4096 166.745 51.7386C167.953 53.0677 169.373 53.4452 170.792 52.1465L171.955 51.1346ZM170.355 44.429C168.844 45.7428 168.391 47.4495 169.781 48.9596C171.17 50.47 172.665 50.47 174.417 48.8389C176.169 47.2077 176.245 45.6219 174.991 44.2326C173.738 42.8432 171.819 43.1149 170.355 44.429Z" fill="white"/>
<path d="M182.332 51.5847L180.715 52.7477C181.314 52.5178 181.971 52.4846 182.589 52.6529C183.208 52.8213 183.759 53.1824 184.158 53.684C184.339 53.9334 184.501 54.1959 184.641 54.4694L183.373 55.3907C183.279 55.1894 183.169 54.9973 183.04 54.8168C182.788 54.4719 182.466 54.1828 182.097 53.9671C181.728 53.7514 181.318 53.6139 180.894 53.5628C180.468 53.5118 180.038 53.5486 179.628 53.6707C179.218 53.793 178.837 53.9978 178.51 54.2729L174.16 57.3842L173.254 56.1005L181.41 50.2859L182.332 51.5847Z" fill="white"/>
<path d="M179.264 60.1054C181.259 58.9728 182.633 60.1054 184.339 62.1443C185.457 63.4733 186.016 64.0624 186.861 63.5791C187.708 63.0957 187.933 62.4766 187.119 61.0417C186.302 59.607 185.411 59.1842 184.098 59.8184L183.283 58.3837C185.005 57.5228 186.892 57.8551 188.342 60.4226C189.263 62.0386 189.414 63.8963 187.284 65.1043L183.086 67.4906C182.392 67.8682 182.12 68.1703 182.301 68.5026C182.337 68.5736 182.383 68.6396 182.436 68.6989L181.485 69.2426C181.3 69.059 181.144 68.8506 181.016 68.6233C180.594 67.8833 180.624 67.2491 181.652 66.5543C180.968 66.5242 180.306 66.3087 179.738 65.9308C179.169 65.5531 178.712 65.0271 178.419 64.4098C178.166 64.081 177.985 63.7017 177.889 63.2976C177.793 62.8932 177.786 62.4733 177.866 62.0657C177.946 61.6582 178.112 61.2723 178.354 60.9343C178.595 60.5962 178.906 60.3136 179.264 60.1054ZM183.796 65.3612L185.186 64.5757C184.454 64.1606 183.823 63.5942 183.327 62.9145C182.014 61.4042 181.213 60.9361 180.202 61.4949C179.19 62.0536 179.113 62.7031 179.749 63.8357C180.624 65.4821 182.058 66.3126 183.736 65.3612H183.796Z" fill="white"/>
<path d="M191.936 67.6094L192.495 69.1198L191.363 69.5426C191.915 69.6819 192.422 69.9565 192.841 70.3415C193.26 70.7263 193.578 71.2096 193.764 71.7476C194.022 72.2675 194.093 72.8599 193.967 73.4259C193.839 73.9921 193.523 74.4978 193.069 74.8589C193.704 75.0136 194.29 75.3239 194.774 75.7614C195.261 76.1992 195.628 76.7505 195.848 77.3659C196.558 79.2688 195.848 80.6129 193.809 81.338L187.254 83.7694L186.696 82.2592L192.887 79.9636C194.096 79.5104 194.971 78.9064 194.398 77.4413C194.293 77.1056 194.118 76.7961 193.883 76.5334C193.649 76.2709 193.361 76.0611 193.04 75.9182C192.719 75.7753 192.371 75.7025 192.018 75.7048C191.666 75.707 191.32 75.7842 191.001 75.9311L185.14 78.1059L184.596 76.5957L190.788 74.2999C191.996 73.8469 192.873 73.258 192.298 71.7778C192.193 71.4441 192.018 71.1363 191.785 70.8752C191.553 70.6139 191.267 70.405 190.947 70.2623C190.626 70.1196 190.28 70.0463 189.93 70.0472C189.581 70.0481 189.235 70.1232 188.915 70.2676L183.086 72.5783L182.543 71.068L191.936 67.6094Z" fill="white"/>
</g>
</svg>
