<svg width="192" height="189" viewBox="0 0 192 189" fill="none" xmlns="http://www.w3.org/2000/svg">
<path d="M187.55 97.1C189.511 97.1 191.1 95.5106 191.1 93.55C191.1 91.5894 189.511 90 187.55 90C185.589 90 184 91.5894 184 93.55C184 95.5106 185.589 97.1 187.55 97.1Z" fill="white"/>
<path d="M93.55 188.1C95.5106 188.1 97.1 186.511 97.1 184.55C97.1 182.589 95.5106 181 93.55 181C91.5894 181 90 182.589 90 184.55C90 186.511 91.5894 188.1 93.55 188.1Z" fill="white"/>
<path d="M3.55 94.1C5.51061 94.1 7.1 92.5106 7.1 90.55C7.1 88.5894 5.51061 87 3.55 87C1.58939 87 0 88.5894 0 90.55C0 92.5106 1.58939 94.1 3.55 94.1Z" fill="white"/>
<path d="M93.55 7.1C95.5106 7.1 97.1 5.51061 97.1 3.55C97.1 1.58939 95.5106 0 93.55 0C91.5894 0 90 1.58939 90 3.55C90 5.51061 91.5894 7.1 93.55 7.1Z" fill="white"/>
<mask id="mask0_0_1" style="mask-type:luminance" maskUnits="userSpaceOnUse" x="0" y="0" width="189" height="189">
<path d="M188.15 0H0V188.15H188.15V0Z" fill="white"/>
</mask>
<g mask="url(#mask0_0_1)">
<path d="M0.51349 66.7844L2.32582 67.2979L1.81233 69.1102L0 68.5967L0.51349 66.7844ZM4.15325 67.9624L13.7887 70.6809L13.3659 72.1912L3.73037 69.4726L4.15325 67.9624Z" fill="white"/>
<path d="M5.30116 64.0221L5.87507 62.5118L6.99261 62.9498C6.6827 62.4037 6.50609 61.7922 6.47715 61.1649C6.4484 60.5376 6.56803 59.9125 6.82647 59.3402C6.93901 58.9043 7.14739 58.4989 7.43672 58.1538C7.72604 57.8087 8.08885 57.5327 8.49852 57.346C8.90837 57.1593 9.35461 57.0664 9.80475 57.0744C10.2551 57.0822 10.6977 57.1909 11.1007 57.392L17.625 59.9141L17.0512 61.4244L10.9044 59.023C10.6379 58.8746 10.3419 58.7878 10.0374 58.769C9.73321 58.7502 9.42862 58.7997 9.14604 58.9142C8.86346 59.0287 8.61017 59.2051 8.4048 59.4304C8.19943 59.6558 8.04714 59.9242 7.95928 60.2162C7.79048 60.5504 7.69338 60.9162 7.67403 61.2902C7.65486 61.664 7.71397 62.0379 7.84763 62.3877C7.98129 62.7374 8.18648 63.0555 8.45024 63.3214C8.71401 63.5871 9.03031 63.7949 9.37892 63.9314L15.1935 66.1818L14.6347 67.6919L5.30116 64.0221Z" fill="white"/>
<path d="M20.1319 49.1455C21.7933 50.0365 22.1406 51.9093 20.9173 54.1597C19.5429 56.6969 17.4285 57.3162 15.6012 56.3797L16.3864 54.8695C17.4889 55.383 18.7273 55.2471 19.7091 53.4348C20.6908 51.6223 20.0715 50.9276 19.3919 50.5651C18.1836 49.9006 17.3833 51.0937 16.5526 52.0755C15.3896 53.4348 13.97 55.0055 12.1426 54.0086C10.6323 53.2081 10.3152 51.4864 11.4177 49.4778C12.6561 47.1973 14.5289 46.6988 16.1298 47.3936L15.3443 48.9039C14.5893 48.6622 13.5321 48.5415 12.6259 50.1725C11.9614 51.4109 12.1728 52.2265 12.8826 52.6041C13.8945 53.1628 14.5893 52.0906 15.5557 51.0183C16.764 49.6137 18.1233 48.0883 20.1319 49.1455Z" fill="white"/>
<path d="M16.0391 42.2872L13.2752 40.4597L14.1663 39.1609L16.9301 41.0337L18.0326 39.4176L19.1654 40.1879L18.1233 41.8039L23.1071 45.202C23.9831 45.8062 24.3455 45.7457 24.844 45.0207C25.0025 44.7898 25.1439 44.5475 25.2668 44.2958L26.3694 45.0509C26.2242 45.372 26.0526 45.6802 25.8559 45.9723C25.0252 47.1806 24.0283 47.7393 22.1557 46.4555L17.2322 43.1027L16.4015 44.326L15.2687 43.5558L16.0391 42.2872Z" fill="white"/>
<path d="M25.3876 41.849C23.6357 40.3387 24.255 38.6774 25.5689 36.3818C26.4297 34.8715 26.7922 34.1466 26.0371 33.5124C25.2818 32.878 24.6326 32.8931 23.5603 34.1466C22.488 35.4001 22.4124 36.3818 23.4545 37.4088L22.3973 38.6623C20.9927 37.3483 20.6454 35.4606 22.5634 33.2103C22.7954 32.8084 23.1171 32.4655 23.5029 32.2081C23.889 31.9505 24.329 31.7855 24.7891 31.7256C25.2494 31.6658 25.7171 31.7127 26.156 31.8627C26.595 32.0128 26.9937 32.262 27.3208 32.591L30.9908 35.7022C31.5948 36.2157 31.9725 36.3818 32.2292 36.0797C32.2785 36.0172 32.324 35.9516 32.3652 35.8834L33.1957 36.5932C33.0833 36.8236 32.9467 37.0412 32.788 37.2427C32.2292 37.9073 31.6252 38.0885 30.6132 37.3634C30.8133 38.0164 30.8348 38.711 30.6755 39.375C30.5161 40.039 30.1817 40.6482 29.7071 41.1392C29.4875 41.4905 29.1957 41.7908 28.851 42.0205C28.5063 42.25 28.1165 42.4035 27.7079 42.4708C27.2991 42.5379 26.8808 42.5171 26.4807 42.4099C26.0806 42.3027 25.708 42.1115 25.3876 41.849ZM28.7857 35.808L27.5624 34.781C27.4221 35.603 27.1081 36.3856 26.6411 37.0766C25.7048 38.8285 25.5085 39.7497 26.3996 40.5048C27.2906 41.2601 27.9097 41.1241 28.7404 40.1272C29.9638 38.7227 30.2053 37.0766 28.7857 35.8381V35.808Z" fill="white"/>
<path d="M38.7083 28.6945C38.7953 29.3123 38.7198 29.9423 38.4895 30.5222C38.2591 31.1023 37.8817 31.6122 37.3943 32.002C35.5669 33.6632 33.0146 33.8294 30.7945 31.3827C28.5743 28.936 28.9973 26.414 30.7945 24.7527C31.2317 24.3184 31.7686 23.9978 32.3584 23.8187C32.9481 23.6398 33.5725 23.6079 34.1774 23.7257L33.3467 22.8045L34.5097 21.7473L40.7774 28.6039C42.6955 30.7183 42.2876 32.9685 40.2337 34.8564C38.1797 36.7443 36.2315 36.7292 34.8722 35.4453L36.0955 34.3429C36.9262 34.9622 37.9834 35.0376 39.3123 33.8294C40.6415 32.6211 41.019 31.2015 39.7202 29.7818L38.7083 28.6945ZM32.0027 30.2048C33.3166 31.715 35.0232 32.1681 36.5336 30.7938C38.0438 29.4194 38.0438 27.8939 36.4127 26.1573C34.7817 24.4204 33.1959 24.3297 31.8064 25.5682C30.4169 26.8066 30.6887 28.6945 32.0027 30.2048Z" fill="white"/>
<path d="M39.1615 18.2442L40.3244 19.8601C40.0946 19.2611 40.0614 18.6045 40.2297 17.9854C40.3981 17.3663 40.7591 16.8169 41.2608 16.4166C41.5101 16.2363 41.7727 16.0748 42.046 15.9335L42.9674 17.2021C42.7661 17.2947 42.5741 17.406 42.3934 17.5343C42.0487 17.7875 41.7595 18.1086 41.5437 18.4781C41.328 18.8475 41.1905 19.2572 41.1395 19.6819C41.0886 20.1065 41.1253 20.5373 41.2474 20.9471C41.3696 21.3572 41.5746 21.7375 41.8497 22.065L44.9609 26.4147L43.6772 27.3208L37.8627 19.1654L39.1615 18.2442Z" fill="white"/>
<path d="M47.6793 21.311C46.5467 19.3175 47.6793 17.9431 49.7183 16.2365C51.0472 15.1189 51.6362 14.5601 51.153 13.7144C50.6697 12.8686 50.0504 12.6421 48.6157 13.4577C47.1809 14.2731 46.7581 15.1642 47.3923 16.4782L45.9576 17.2936C45.0967 15.5721 45.429 13.6842 47.9965 12.2344C49.6125 11.313 51.4702 11.1621 52.6783 13.2916L55.0646 17.4749C55.4421 18.1545 55.7442 18.4415 56.0916 18.2452L56.2728 18.1243L56.8165 19.0759C56.6349 19.2515 56.4319 19.4038 56.2123 19.5289C55.4572 19.967 54.823 19.9366 54.1283 18.9098C54.0981 19.5925 53.8826 20.2542 53.5047 20.8236C53.1268 21.393 52.6011 21.8487 51.9835 22.1417C51.6559 22.3962 51.2774 22.578 50.874 22.6746C50.4704 22.7711 50.0507 22.7803 49.6432 22.7017C49.2358 22.6231 48.8498 22.4584 48.5111 22.2186C48.1724 21.9788 47.8888 21.6694 47.6793 21.311ZM52.9351 16.7801L52.1497 15.3908C51.737 16.1188 51.1699 16.7477 50.4885 17.2333C48.9781 18.5624 48.51 19.3628 49.0688 20.3596C49.6276 21.3563 50.2921 21.4621 51.4097 20.8277C53.056 19.9517 53.8865 18.5019 52.9351 16.8407V16.7801Z" fill="white"/>
<path d="M55.1853 8.62242L56.6956 8.07874L57.1033 9.19628C57.2416 8.64159 57.5175 8.13075 57.9056 7.71096C58.2937 7.29117 58.7813 6.97611 59.3235 6.79488C59.8498 6.54407 60.4466 6.4823 61.0131 6.61987C61.5799 6.75743 62.0819 7.0858 62.4347 7.55014C62.5801 6.906 62.8865 6.30924 63.3247 5.81544C63.7631 5.32154 64.3194 4.94673 64.9417 4.72585C66.8447 4.01603 68.1888 4.80138 68.9137 6.76471L71.3452 13.3193L69.8351 13.8782L67.5395 7.68593C67.0863 6.4626 66.4823 5.6019 65.0172 6.17576C64.6815 6.28084 64.372 6.45639 64.1093 6.69051C63.8468 6.92464 63.6369 7.21201 63.4941 7.53346C63.3512 7.85491 63.2784 8.20317 63.2807 8.55497C63.2828 8.90678 63.36 9.25414 63.507 9.57382L65.6817 15.4336L64.1714 15.9775L61.9212 9.75505C61.4681 8.54681 60.8791 7.67085 59.399 8.24488C59.0633 8.34996 58.7537 8.52533 58.491 8.75945C58.2285 8.99357 58.0187 9.28095 57.8758 9.60258C57.7329 9.92403 57.6602 10.2723 57.6625 10.6241C57.6646 10.9759 57.7418 11.3233 57.8888 11.6429L60.0635 17.5027L58.5532 18.0464L55.1853 8.62242Z" fill="white"/>
<path d="M183.997 120.171L174.362 117.468L174.784 115.957L184.419 118.661L183.997 120.171ZM187.637 121.349L185.764 120.821L186.277 119.008L188.09 119.506L187.637 121.349Z" fill="white"/>
<path d="M182.834 124.161L182.261 125.671L181.142 125.248C181.456 125.793 181.636 126.404 181.668 127.031C181.698 127.659 181.581 128.285 181.323 128.858C181.21 129.295 181 129.7 180.709 130.045C180.418 130.39 180.052 130.665 179.641 130.851C179.231 131.036 178.782 131.127 178.331 131.117C177.88 131.106 177.436 130.995 177.035 130.791L170.524 128.254L171.083 126.744L177.23 129.13C177.498 129.293 177.8 129.392 178.112 129.42C178.425 129.447 178.741 129.402 179.032 129.288C179.325 129.174 179.587 128.994 179.799 128.763C180.01 128.531 180.164 128.253 180.251 127.952C180.418 127.617 180.512 127.252 180.532 126.878C180.549 126.505 180.489 126.132 180.356 125.783C180.223 125.434 180.019 125.116 179.756 124.85C179.493 124.584 179.179 124.375 178.831 124.237L173.002 121.971L173.575 120.461L182.834 124.161Z" fill="white"/>
<path d="M168.018 138.946C166.357 138.039 166.009 136.182 167.233 133.931C168.607 131.394 170.707 130.775 172.55 131.711L171.763 133.222C170.661 132.708 169.422 132.844 168.44 134.732C167.459 136.62 168.078 137.239 168.758 137.601C169.967 138.266 170.767 137.058 171.598 136.091C172.761 134.732 174.181 133.161 176.007 134.158C177.518 134.958 177.835 136.68 176.733 138.689C175.494 140.969 173.606 141.468 172.021 140.773L172.805 139.263C173.561 139.489 174.617 139.625 175.508 137.994C176.188 136.741 175.977 135.94 175.267 135.547C174.255 135.004 173.561 136.076 172.594 137.148C171.385 138.538 169.967 140.063 168.018 138.946Z" fill="white"/>
<path d="M172.171 145.816L174.919 147.689L174.044 148.988L171.28 147.115L170.178 148.731L169.046 147.961L170.148 146.33L165.164 142.947C164.288 142.343 163.91 142.403 163.427 143.128C163.266 143.352 163.125 143.59 163.004 143.838L161.901 143.098C162.032 142.773 162.2 142.464 162.4 142.177C163.23 140.953 164.227 140.41 166.115 141.693L170.963 144.986L171.793 143.762L172.942 144.533L172.171 145.816Z" fill="white"/>
<path d="M162.762 146.302C164.514 147.812 163.88 149.473 162.581 151.769C161.72 153.279 161.358 154.004 162.113 154.638C162.868 155.273 163.517 155.258 164.574 154.004C165.632 152.751 165.737 151.754 164.68 150.742L165.753 149.488C167.157 150.802 167.489 152.69 165.586 154.94C165.354 155.344 165.03 155.688 164.642 155.946C164.254 156.203 163.812 156.368 163.35 156.426C162.888 156.485 162.419 156.436 161.979 156.283C161.539 156.13 161.14 155.877 160.814 155.545L157.144 152.433C156.555 151.935 156.177 151.769 155.921 152.071C155.869 152.127 155.824 152.187 155.785 152.252L154.939 151.542C155.051 151.313 155.194 151.1 155.362 150.908C155.921 150.243 156.525 150.047 157.521 150.772C157.313 150.123 157.287 149.428 157.447 148.765C157.607 148.101 157.946 147.495 158.428 147.012C158.647 146.658 158.94 146.355 159.285 146.124C159.631 145.893 160.023 145.739 160.434 145.672C160.844 145.604 161.264 145.626 161.666 145.734C162.068 145.843 162.441 146.037 162.762 146.302ZM159.364 152.343L160.587 153.37C160.715 152.54 161.03 151.749 161.509 151.059C162.445 149.322 162.641 148.401 161.75 147.646C160.859 146.891 160.24 147.027 159.394 148.023C158.186 149.428 157.899 151.029 159.364 152.313V152.343Z" fill="white"/>
<path d="M149.427 159.532C149.341 158.916 149.417 158.289 149.647 157.711C149.878 157.134 150.254 156.627 150.74 156.239C152.568 154.578 155.12 154.412 157.34 156.859C159.56 159.305 159.138 161.827 157.34 163.489C156.905 163.92 156.37 164.238 155.783 164.414C155.195 164.591 154.574 164.62 153.973 164.5L154.803 165.421L153.64 166.479L147.357 159.547C145.455 157.432 145.847 155.182 147.916 153.294C149.985 151.406 151.903 151.422 153.278 152.705L152.054 153.808C151.224 153.189 150.152 153.113 148.837 154.321C147.524 155.529 147.131 156.949 148.415 158.369L149.427 159.532ZM156.147 157.931C154.833 156.421 153.127 155.983 151.616 157.357C150.106 158.731 150.106 160.242 151.737 161.993C153.368 163.745 154.954 163.821 156.268 162.567C157.582 161.314 157.461 159.396 156.147 157.931Z" fill="white"/>
<path d="M148.973 169.905L147.826 168.29C148.054 168.889 148.085 169.548 147.914 170.166C147.742 170.785 147.378 171.334 146.874 171.733C146.627 171.916 146.364 172.077 146.089 172.216L145.183 170.947C145.377 170.851 145.564 170.739 145.742 170.615C146.087 170.363 146.378 170.043 146.595 169.674C146.812 169.305 146.951 168.895 147.004 168.471C147.056 168.046 147.02 167.615 146.9 167.205C146.778 166.793 146.575 166.412 146.3 166.083L143.189 161.734L144.473 160.828L150.287 168.984L148.973 169.905Z" fill="white"/>
<path d="M140.455 166.839C141.588 168.833 140.455 170.207 138.401 171.914C137.072 173.031 136.483 173.59 136.982 174.436C137.48 175.281 138.084 175.508 139.519 174.692C140.954 173.877 141.362 172.986 140.727 171.673L142.237 170.856C143.113 172.578 142.781 174.467 140.214 175.917C138.598 176.838 136.74 176.989 135.532 174.859L133.085 170.661C132.693 169.965 132.406 169.694 132.058 169.891C131.986 169.917 131.919 169.958 131.862 170.011L131.394 169.15C131.58 168.969 131.788 168.811 132.013 168.682C132.768 168.259 133.387 168.29 134.097 169.315C134.124 168.632 134.338 167.97 134.716 167.4C135.095 166.829 135.622 166.374 136.242 166.085C136.562 165.842 136.93 165.668 137.321 165.574C137.712 165.481 138.118 165.469 138.514 165.54C138.91 165.611 139.286 165.764 139.62 165.987C139.954 166.211 140.239 166.5 140.455 166.839ZM135.2 171.371L135.985 172.759C136.398 172.031 136.965 171.403 137.646 170.917C139.157 169.589 139.625 168.788 139.051 167.775C138.477 166.763 137.843 166.688 136.725 167.322C135.094 168.199 134.263 169.633 135.215 171.311L135.2 171.371Z" fill="white"/>
<path d="M132.904 179.509L131.394 180.068L130.986 178.936C130.847 179.488 130.572 179.996 130.187 180.415C129.802 180.835 129.319 181.151 128.781 181.338C128.261 181.595 127.669 181.666 127.103 181.54C126.537 181.412 126.031 181.096 125.67 180.642C125.518 181.265 125.215 181.842 124.789 182.321C124.362 182.8 123.825 183.168 123.223 183.391C121.335 184.101 119.991 183.391 119.267 181.352L116.82 174.798L118.33 174.239L120.626 180.431C121.079 181.639 121.668 182.514 123.148 181.941C123.482 181.835 123.79 181.657 124.051 181.423C124.313 181.188 124.521 180.901 124.664 180.58C124.807 180.26 124.88 179.912 124.879 179.561C124.878 179.209 124.803 178.863 124.658 178.544L122.483 172.683L123.994 172.14L126.289 178.332C126.742 179.539 127.346 180.416 128.811 179.841C129.147 179.738 129.456 179.564 129.718 179.332C129.981 179.099 130.191 178.814 130.334 178.492C130.477 178.173 130.55 177.825 130.548 177.475C130.546 177.124 130.469 176.778 130.322 176.458L127.996 170.659L129.506 170.116L132.904 179.509Z" fill="white"/>
<path d="M66.7844 187.637L67.2979 185.825L69.1102 186.34L68.5967 188.152L66.7844 187.637ZM67.9775 183.998L70.6809 174.362L72.1912 174.786L69.4726 184.421L67.9775 183.998Z" fill="white"/>
<path d="M63.9751 182.836L62.4649 182.261L62.8877 181.158C62.3405 181.465 61.7292 181.639 61.1026 181.668C60.476 181.698 59.8514 181.579 59.2783 181.325C58.8434 181.206 58.4406 180.991 58.0993 180.697C57.758 180.404 57.4869 180.036 57.3059 179.623C57.1248 179.211 57.0386 178.762 57.0531 178.313C57.0677 177.862 57.183 177.42 57.3904 177.021L59.9276 170.51L61.4379 171.085L59.0365 177.232C58.8736 177.5 58.7749 177.804 58.7482 178.118C58.7218 178.43 58.768 178.746 58.8835 179.037C58.9991 179.33 59.1808 179.593 59.4142 179.802C59.6478 180.013 59.9268 180.168 60.2297 180.253C60.5639 180.422 60.9297 180.517 61.3037 180.537C61.6775 180.557 62.0513 180.498 62.4012 180.363C62.7511 180.23 63.0689 180.024 63.3348 179.761C63.6006 179.497 63.8084 179.181 63.9449 178.833L66.2103 173.018L67.7207 173.577L63.9751 182.836Z" fill="white"/>
<path d="M49.1444 168.02C50.0355 166.358 51.9083 166.01 54.1586 167.233C56.6958 168.609 57.3151 170.723 56.3786 172.55L54.8684 171.765C55.3819 170.663 55.246 169.424 53.4335 168.442C51.6213 167.461 50.9265 168.08 50.5641 168.76C49.8995 169.967 51.0927 170.767 52.0744 171.598C53.4335 172.761 55.0042 174.181 54.0076 176.009C53.207 177.52 51.4853 177.835 49.4767 176.733C47.1962 175.494 46.6978 173.622 47.3925 172.021L48.9028 172.807C48.6762 173.561 48.5555 174.619 50.1865 175.51C51.4249 176.19 52.2406 175.979 52.6181 175.269C53.1769 174.257 52.1046 173.561 51.0323 172.596C49.6127 171.387 48.0872 169.967 49.1444 168.02Z" fill="white"/>
<path d="M42.2876 172.173L40.3999 174.921L39.116 174.046L40.9888 171.282L39.3729 170.18L40.143 169.046L41.759 170.15L45.1572 165.166C45.7613 164.289 45.7009 163.927 44.976 163.428C44.7465 163.267 44.504 163.126 44.2511 163.005L45.0062 161.903C45.3301 162.042 45.6388 162.214 45.9274 162.416C47.1357 163.232 47.6944 164.244 46.4107 166.117L43.0579 171.041L44.2813 171.855L43.5109 173.004L42.2876 172.173Z" fill="white"/>
<path d="M41.8346 162.761C40.3244 164.513 38.6781 163.879 36.3825 162.58C34.8724 161.719 34.1474 161.357 33.5131 162.112C32.8787 162.867 32.8938 163.516 34.1475 164.574C35.401 165.631 36.3825 165.737 37.4095 164.679L38.663 165.751C37.3492 167.157 35.4613 167.489 33.211 165.586C31.7913 164.377 31.0061 162.686 32.5918 160.813L35.7029 157.143C36.2164 156.554 36.3825 156.177 36.0806 155.92L35.8841 155.784L36.5939 154.938C36.8277 155.051 37.046 155.193 37.2434 155.361C37.908 155.92 38.0892 156.524 37.3643 157.521C38.0164 157.314 38.7127 157.289 39.378 157.449C40.0435 157.608 40.6526 157.947 41.1399 158.427C41.4944 158.646 41.7975 158.938 42.0286 159.285C42.2597 159.631 42.4134 160.024 42.4795 160.435C42.5453 160.846 42.5219 161.267 42.4106 161.668C42.2993 162.07 42.103 162.443 41.8346 162.761ZM35.7936 159.363L34.7666 160.587C35.5905 160.72 36.3747 161.034 37.0622 161.508C38.8141 162.444 39.7353 162.64 40.4906 161.749C41.2457 160.858 41.0946 160.239 40.1129 159.408C38.7236 158.185 37.0773 157.898 35.8388 159.363H35.7936Z" fill="white"/>
<path d="M28.6952 149.426C29.3131 149.339 29.943 149.414 30.5229 149.645C31.1028 149.875 31.6128 150.253 32.0025 150.74C33.6639 152.567 33.8301 155.12 31.3834 157.34C28.9368 159.56 26.4147 159.137 24.7533 157.34C24.3203 156.905 24.0003 156.37 23.8214 155.783C23.6423 155.196 23.6096 154.574 23.7262 153.972L22.805 154.803L21.7478 153.64L28.6801 147.357C30.7945 145.454 33.0446 145.847 34.9325 147.916C36.8204 149.985 36.8053 151.918 35.5215 153.277L34.419 152.054C35.0383 151.223 35.1138 150.166 33.9055 148.837C32.6973 147.508 31.2776 147.13 29.858 148.429L28.6952 149.426ZM30.2054 156.147C31.7157 154.833 32.1687 153.126 30.7945 151.616C29.4201 150.106 27.8947 150.106 26.1578 151.737C24.421 153.368 24.3154 154.953 25.5689 156.267C26.8224 157.581 28.6952 157.461 30.2054 156.147Z" fill="white"/>
<path d="M18.244 148.973L19.8601 147.826C19.2611 148.056 18.6043 148.089 17.9854 147.92C17.3662 147.752 16.8167 147.391 16.4166 146.889C16.232 146.64 16.0653 146.377 15.9182 146.104L17.2019 145.183C17.2947 145.379 17.406 145.566 17.5342 145.742C17.7862 146.087 18.1066 146.378 18.4754 146.595C18.8443 146.812 19.2538 146.951 19.6784 147.004C20.1031 147.056 20.5343 147.02 20.9446 146.9C21.3552 146.778 21.7365 146.575 22.065 146.3L26.4147 143.189L27.3208 144.473L19.1654 150.287L18.244 148.973Z" fill="white"/>
<path d="M21.3099 140.455C19.3013 141.587 17.942 140.455 16.2354 138.401C15.1178 137.072 14.5591 136.498 13.7133 136.981C12.8675 137.464 12.641 138.084 13.4564 139.518C14.2721 140.953 15.1631 141.376 16.4771 140.742L17.2926 142.252C15.5708 143.113 13.6831 142.781 12.2331 140.213C11.3119 138.597 11.1608 136.739 13.2905 135.531L17.4738 133.145C18.1535 132.768 18.4405 132.465 18.2442 132.118L18.1233 131.861L19.0898 131.333C19.2611 131.518 19.4128 131.721 19.5429 131.937C19.981 132.692 19.9506 133.326 18.9238 134.021C19.6056 134.054 20.2659 134.271 20.8348 134.649C21.4037 135.026 21.86 135.55 22.1557 136.166C22.4071 136.494 22.5856 136.872 22.6795 137.275C22.7736 137.677 22.7807 138.095 22.7008 138.501C22.6208 138.907 22.4553 139.291 22.2155 139.628C21.9757 139.964 21.6671 140.246 21.3099 140.455ZM16.7791 135.199L15.3896 135.984C16.1177 136.397 16.7466 136.964 17.2322 137.646C18.5612 139.156 19.3617 139.624 20.3585 139.05C21.3552 138.476 21.461 137.842 20.8115 136.724C19.9506 135.093 18.5008 134.263 16.8396 135.214L16.7791 135.199Z" fill="white"/>
<path d="M8.62366 132.904L8.07998 131.394L9.19752 130.986C8.64957 130.853 8.14317 130.587 7.72391 130.21C7.30466 129.832 6.98587 129.357 6.7963 128.826C6.54549 128.3 6.48354 127.703 6.6211 127.136C6.75867 126.57 7.08722 126.068 7.55138 125.715C6.91007 125.574 6.31492 125.272 5.82111 124.839C5.32731 124.406 4.95102 123.855 4.72716 123.238C4.01732 121.35 4.80267 120.006 6.76594 119.281L13.3207 116.835L13.8794 118.345L7.68735 120.64C6.46402 121.094 5.60314 121.682 6.177 123.163C6.28208 123.498 6.45763 123.808 6.69175 124.071C6.92587 124.333 7.21324 124.543 7.5347 124.686C7.85615 124.829 8.20458 124.901 8.55639 124.899C8.90819 124.897 9.25538 124.82 9.57506 124.673L15.42 122.498L15.9787 124.008L9.78664 126.319C8.5784 126.772 7.70243 127.361 8.27629 128.826C8.38137 129.162 8.55692 129.471 8.79104 129.734C9.02516 129.997 9.31254 130.206 9.63399 130.349C9.95544 130.492 10.3037 130.565 10.6557 130.563C11.0075 130.56 11.3547 130.483 11.6744 130.336L17.5343 128.162L18.078 129.672L8.62366 132.904Z" fill="white"/>
<path d="M120.173 4.15325L117.469 13.7887L115.959 13.3659L118.662 3.73037L120.173 4.15325ZM121.351 0.51349L120.822 2.32582L119.01 1.81233L119.538 0L121.351 0.51349Z" fill="white"/>
<path d="M124.16 5.31459L125.67 5.87347L125.247 6.99101C125.793 6.68109 126.405 6.50448 127.032 6.47555C127.659 6.44662 128.284 6.56643 128.857 6.82487C129.293 6.93847 129.699 7.14863 130.044 7.43973C130.389 7.73083 130.664 8.09541 130.849 8.50686C131.035 8.9183 131.126 9.36613 131.115 9.81716C131.105 10.2684 130.994 10.7116 130.79 11.114L128.252 17.6233L126.742 17.0494L129.128 10.9026C129.277 10.6374 129.364 10.342 129.384 10.0387C129.404 9.73516 129.356 9.4311 129.243 9.1487C129.13 8.86629 128.955 8.61283 128.732 8.40675C128.508 8.20067 128.241 8.04713 127.951 7.95749C127.616 7.78869 127.25 7.6916 126.876 7.67243C126.502 7.65326 126.129 7.71237 125.779 7.84602C125.429 7.97968 125.111 8.18487 124.845 8.44864C124.579 8.71222 124.372 9.02853 124.235 9.37732L121.97 15.1919L120.459 14.6329L124.16 5.31459Z" fill="white"/>
<path d="M138.945 20.1313C138.039 21.7926 136.182 22.1399 133.931 20.9166C131.394 19.5422 130.775 17.4278 131.711 15.5854L133.221 16.3857C132.708 17.4884 132.844 18.7268 134.732 19.7084C136.619 20.6901 137.239 20.0708 137.601 19.3913C138.251 18.1831 137.058 17.3826 136.091 16.5519C134.732 15.3891 133.161 13.9694 134.158 12.1419C134.958 10.6317 136.68 10.3145 138.689 11.417C140.969 12.6554 141.468 14.5282 140.773 16.1291L139.262 15.3436C139.489 14.5886 139.625 13.5314 137.994 12.6252C136.74 11.9607 135.94 12.1721 135.547 12.8819C135.003 13.8938 136.076 14.5886 137.058 15.5401C138.538 16.7635 140.063 18.1226 138.945 20.1313Z" fill="white"/>
<path d="M145.817 16.0382L147.69 13.2743L148.989 14.1654L147.116 16.9292L148.732 18.0317L147.962 19.1645L146.33 18.1224L142.947 23.1062C142.343 23.9822 142.404 24.3447 143.129 24.8431C143.356 24.9984 143.594 25.1395 143.839 25.2659L143.099 26.3685C142.776 26.2269 142.467 26.0549 142.177 25.855C140.954 25.0243 140.41 24.0275 141.694 22.1548L144.986 17.1708L143.778 16.3403L144.548 15.2075L145.817 16.0382Z" fill="white"/>
<path d="M146.3 25.3884C147.81 23.6364 149.472 24.2555 151.767 25.5696C153.278 26.4305 154.003 26.7929 154.637 26.0377C155.271 25.2826 155.256 24.6331 154.003 23.5608C152.749 22.4885 151.752 22.4131 150.74 23.4552L149.487 22.398C150.801 20.9935 152.689 20.6461 154.939 22.5642C155.34 22.7976 155.681 23.1199 155.937 23.5067C156.193 23.8933 156.357 24.3337 156.415 24.7937C156.474 25.2536 156.425 25.721 156.274 26.1594C156.123 26.5977 155.873 26.9953 155.543 27.3215L152.432 30.9915C151.934 31.5955 151.767 31.9731 152.069 32.2299L152.251 32.3657L151.541 33.1964C151.313 33.0805 151.095 32.944 150.892 32.7887C150.242 32.2299 150.046 31.6257 150.771 30.6138C150.12 30.8144 149.428 30.836 148.766 30.6766C148.104 30.517 147.498 30.1825 147.01 29.7076C146.659 29.4883 146.358 29.1964 146.129 28.8516C145.899 28.5069 145.746 28.1172 145.679 27.7085C145.611 27.2999 145.632 26.8815 145.739 26.4814C145.846 26.0813 146.038 25.7087 146.3 25.3884ZM152.341 28.7713L153.368 27.5631C152.542 27.4197 151.756 27.1058 151.058 26.6419C149.321 25.7055 148.384 25.5091 147.644 26.385C146.904 27.261 147.025 27.8954 148.022 28.7412C149.426 29.9645 151.027 30.2061 152.311 28.7713H152.341Z" fill="white"/>
<path d="M159.53 38.7096C158.915 38.7953 158.287 38.7191 157.71 38.4887C157.133 38.2583 156.625 37.8817 156.238 37.3955C154.577 35.5682 154.411 33.0006 156.857 30.7957C159.304 28.5906 161.826 28.9985 163.487 30.7957C163.92 31.2336 164.239 31.7713 164.415 32.3611C164.591 32.9509 164.62 33.575 164.499 34.1787L165.421 33.348L166.477 34.511L159.546 40.7787C157.431 42.6966 155.181 42.2888 153.293 40.2348C151.405 38.181 151.42 36.2327 152.704 34.8734L153.806 36.0968C153.187 36.9275 153.112 37.9846 154.32 39.3136C155.528 40.6427 156.948 41.0202 158.367 39.7215L159.53 38.7096ZM157.93 32.004C156.419 33.3178 155.966 35.0245 157.356 36.5346C158.745 38.045 160.24 38.045 161.992 36.4139C163.744 34.7827 163.82 33.1969 162.566 31.8076C161.313 30.4182 159.394 30.6899 157.93 32.004Z" fill="white"/>
<path d="M169.907 39.1597L168.29 40.3227C168.889 40.0928 169.546 40.0596 170.164 40.2279C170.783 40.3963 171.334 40.7574 171.733 41.259C171.914 41.5084 172.076 41.7709 172.216 42.0444L170.948 42.9657C170.854 42.7644 170.744 42.5723 170.615 42.3918C170.363 42.0469 170.041 41.7578 169.672 41.5421C169.303 41.3264 168.893 41.1889 168.469 41.1378C168.043 41.0868 167.613 41.1236 167.203 41.2457C166.793 41.368 166.412 41.5728 166.085 41.8479L161.735 44.9592L160.829 43.6755L168.985 37.8609L169.907 39.1597Z" fill="white"/>
<path d="M166.839 47.6804C168.834 46.5478 170.208 47.6804 171.914 49.7193C173.032 51.0483 173.591 51.6374 174.436 51.1541C175.283 50.6707 175.508 50.0516 174.694 48.6167C173.877 47.182 172.986 46.7592 171.673 47.3934L170.858 45.9587C172.58 45.0978 174.467 45.4301 175.917 47.9976C176.838 49.6136 176.989 51.4713 174.859 52.6793L170.661 55.0656C169.967 55.4432 169.695 55.7453 169.876 56.0776C169.912 56.1486 169.958 56.2146 170.011 56.2739L169.06 56.8176C168.875 56.634 168.719 56.4256 168.591 56.1983C168.169 55.4583 168.199 54.8241 169.227 54.1293C168.543 54.0992 167.881 53.8837 167.313 53.5058C166.743 53.1281 166.287 52.6021 165.994 51.9848C165.741 51.656 165.56 51.2767 165.464 50.8726C165.368 50.4682 165.361 50.0482 165.441 49.6407C165.521 49.2332 165.687 48.8473 165.929 48.5093C166.17 48.1712 166.481 47.8886 166.839 47.6804ZM171.371 52.9362L172.761 52.1507C172.029 51.7356 171.398 51.1692 170.902 50.4895C169.589 48.9792 168.788 48.5111 167.777 49.0699C166.765 49.6286 166.688 50.2781 167.324 51.4107C168.199 53.0571 169.633 53.8876 171.311 52.9362H171.371Z" fill="white"/>
<path d="M179.511 55.1844L180.07 56.6947L178.938 57.1176C179.49 57.2569 179.997 57.5315 180.416 57.9165C180.835 58.3013 181.153 58.7846 181.339 59.3226C181.597 59.8425 181.668 60.4348 181.542 61.0009C181.414 61.5671 181.098 62.0728 180.644 62.4339C181.279 62.5886 181.865 62.8989 182.349 63.3364C182.836 63.7742 183.203 64.3255 183.423 64.9409C184.133 66.8438 183.423 68.1879 181.384 68.913L174.829 71.3444L174.271 69.8342L180.462 67.5386C181.671 67.0854 182.546 66.4814 181.973 65.0163C181.868 64.6806 181.693 64.3711 181.458 64.1084C181.224 63.8459 180.936 63.6361 180.615 63.4932C180.294 63.3503 179.946 63.2775 179.593 63.2798C179.241 63.2819 178.895 63.3592 178.576 63.5061L172.715 65.6809L172.171 64.1707L178.363 61.8749C179.571 61.4219 180.448 60.833 179.873 59.3528C179.768 59.0191 179.593 58.7113 179.36 58.4502C179.128 58.1889 178.842 57.98 178.522 57.8373C178.201 57.6946 177.855 57.6213 177.505 57.6222C177.156 57.6231 176.81 57.6982 176.49 57.8426L170.661 60.1533L170.118 58.643L179.511 55.1844Z" fill="white"/>
</g>
</svg>
