<svg width="50" height="49" viewBox="0 0 50 49" fill="none" xmlns="http://www.w3.org/2000/svg">
<path d="M25.9667 48.9333C26.5005 48.9333 26.9333 48.5005 26.9333 47.9667C26.9333 47.4328 26.5005 47 25.9667 47C25.4328 47 25 47.4328 25 47.9667C25 48.5005 25.4328 48.9333 25.9667 48.9333Z" fill="white"/>
<path d="M24.9667 1.93333C25.5005 1.93333 25.9333 1.50054 25.9333 0.966667C25.9333 0.432791 25.5005 0 24.9667 0C24.4328 0 24 0.432791 24 0.966667C24 1.50054 24.4328 1.93333 24.9667 1.93333Z" fill="white"/>
<path d="M48.9667 24.9333C49.5005 24.9333 49.9333 24.5005 49.9333 23.9667C49.9333 23.4328 49.5005 23 48.9667 23C48.4328 23 48 23.4328 48 23.9667C48 24.5005 48.4328 24.9333 48.9667 24.9333Z" fill="white"/>
<path d="M0.966667 24.9333C1.50054 24.9333 1.93333 24.5005 1.93333 23.9667C1.93333 23.4328 1.50054 23 0.966667 23C0.432791 23 0 23.4328 0 23.9667C0 24.5005 0.432791 24.9333 0.966667 24.9333Z" fill="white"/>
<path d="M2.94914 13.8902C2.17034 13.4737 1.90794 12.7407 2.29113 12.0202C2.36952 11.8625 2.4804 11.7232 2.61646 11.6114C2.75252 11.4996 2.91071 11.4177 3.0806 11.3713C3.2505 11.3249 3.42827 11.315 3.60232 11.3421C3.77632 11.3692 3.94263 11.4328 4.09034 11.5288C4.15457 11.5602 4.21712 11.595 4.27777 11.6329L3.26567 13.5404C3.37051 13.6074 3.48806 13.6521 3.61092 13.6716C3.73378 13.6911 3.85935 13.685 3.9798 13.6537C4.1002 13.6225 4.21286 13.5666 4.31074 13.4898C4.40856 13.413 4.48952 13.3167 4.54849 13.2072C4.64312 13.0577 4.68286 12.88 4.66082 12.7045C4.63878 12.5289 4.55637 12.3665 4.4277 12.2451L4.63177 11.8578C4.84632 12.0437 4.98827 12.2995 5.03245 12.58C5.07668 12.8605 5.02032 13.1475 4.87334 13.3905C4.46516 14.1609 3.69052 14.2817 2.94914 13.8902ZM2.94914 13.3655L3.74881 11.8578C3.65273 11.8031 3.54635 11.7691 3.43644 11.7576C3.32653 11.7462 3.21541 11.7576 3.11014 11.7913C3.00487 11.8249 2.90772 11.88 2.82478 11.9532C2.74189 12.0263 2.67504 12.1157 2.62845 12.216C2.5719 12.3111 2.53487 12.4166 2.51955 12.5263C2.50423 12.6359 2.51095 12.7475 2.53922 12.8545C2.56755 12.9615 2.61689 13.0618 2.68442 13.1496C2.75194 13.2373 2.83628 13.3107 2.93251 13.3655H2.94914Z" fill="white"/>
<path d="M5.99786 8.61314L6.34769 8.86718L4.74839 11.0579L4.39435 10.8039L5.99786 8.61314Z" fill="white"/>
<path d="M5.7313 7.08059L6.03952 6.77653L6.27273 7.01394C6.24963 6.86256 6.26326 6.70784 6.31256 6.56284C6.36186 6.41784 6.44538 6.28686 6.55596 6.18096C6.65843 6.0582 6.79961 5.974 6.95636 5.9422C7.11305 5.91044 7.27589 5.93292 7.41808 6.00604C7.38082 5.82499 7.39029 5.63741 7.44568 5.46104C7.50107 5.28467 7.6005 5.12536 7.73462 4.99815C8.13028 4.60665 8.5676 4.65247 8.96325 5.06475L10.3168 6.43916L10.0087 6.74322L8.73005 5.44378C8.48011 5.1897 8.23023 5.02729 7.92206 5.34383C7.85004 5.40792 7.79243 5.48646 7.75299 5.57443C7.71355 5.66235 7.69315 5.75766 7.69315 5.85404C7.69315 5.95041 7.71355 6.04568 7.75299 6.1336C7.79243 6.22156 7.85004 6.30015 7.92206 6.36419L9.12986 7.58867L8.82164 7.89274L7.54718 6.59745C7.29314 6.34336 7.04742 6.18096 6.7392 6.49334C6.66723 6.55738 6.60961 6.63597 6.57017 6.72394C6.53073 6.81186 6.51034 6.90712 6.51034 7.0035C6.51034 7.09988 6.53073 7.19519 6.57017 7.28311C6.60961 7.37103 6.66723 7.44962 6.7392 7.51371L7.98035 8.7465L7.66797 9.05056L5.7313 7.08059Z" fill="white"/>
<path d="M10.3751 5.5272C10.0086 5.01076 10.2876 4.60264 10.7916 4.07783C11.1248 3.73215 11.2706 3.5656 11.1123 3.34486C10.9541 3.12412 10.7833 3.08246 10.4126 3.34486C10.0419 3.60721 9.95032 3.86546 10.1627 4.21114L9.79202 4.47354C9.50468 4.02786 9.54214 3.49894 10.2085 3.02832C10.2979 2.9362 10.4073 2.86602 10.5282 2.8232C10.6492 2.78032 10.7784 2.76602 10.9058 2.78134C11.0332 2.79666 11.1553 2.84122 11.2627 2.9115C11.37 2.98178 11.4597 3.07593 11.5246 3.18657L12.2951 4.26527C12.4201 4.44434 12.5117 4.511 12.5992 4.44855L12.6492 4.40689L12.8241 4.65261C12.78 4.70839 12.7281 4.7575 12.67 4.79839C12.4742 4.9358 12.3035 4.94832 12.0827 4.68591C12.0934 4.87417 12.053 5.06185 11.9658 5.22904C11.8785 5.39617 11.7477 5.53663 11.5871 5.63552C11.5038 5.71522 11.4045 5.77617 11.2957 5.8143C11.187 5.85239 11.0713 5.86684 10.9565 5.8566C10.8417 5.8463 10.7305 5.81165 10.6302 5.75481C10.5299 5.69801 10.4429 5.62039 10.3751 5.5272ZM11.6912 4.16532L11.4371 3.81132C11.3399 4.02384 11.1978 4.21278 11.0207 4.36522C10.65 4.78171 10.5376 5.00245 10.7208 5.26069C10.9041 5.51889 11.0832 5.52721 11.3747 5.31899C11.8286 4.99829 11.9994 4.58181 11.6912 4.16532Z" fill="white"/>
<path d="M11.9286 0.778793L12.191 1.24941L11.7412 1.50766L11.4788 1.05787L11.9286 0.778793ZM12.4201 1.71172L13.807 4.10239L13.4322 4.31897L12.0452 1.9283L12.4201 1.71172Z" fill="white"/>
<path d="M13.2822 0L15.0231 3.45685L14.6358 3.6526L12.8949 0.19575L13.2822 0Z" fill="white"/>
<path d="M47.384 34.448C48.167 34.8645 48.4251 35.5933 48.0423 36.3139C47.964 36.4719 47.8534 36.6116 47.7175 36.7239C47.5817 36.8361 47.4237 36.9184 47.2535 36.9651C47.0839 37.012 46.906 37.0223 46.7315 36.9954C46.5575 36.9686 46.3908 36.9052 46.2429 36.8095L46.0554 36.7012L47.0675 34.7937C46.9631 34.7267 46.8461 34.6821 46.7233 34.6626C46.6006 34.6432 46.4754 34.6493 46.3555 34.6806C46.2352 34.7119 46.123 34.7677 46.0254 34.8445C45.9282 34.9213 45.8475 35.0174 45.789 35.1268C45.6948 35.2761 45.6547 35.4534 45.6759 35.6287C45.6972 35.804 45.7784 35.9666 45.9055 36.089L45.7016 36.4763C45.4874 36.291 45.3453 36.0359 45.3014 35.7562C45.2569 35.4764 45.3134 35.1901 45.4599 34.9478C45.8683 34.1773 46.6426 34.0523 47.384 34.448ZM47.384 34.9686L46.5885 36.4763C46.6847 36.531 46.7905 36.5653 46.9002 36.5771C47.0099 36.5888 47.1211 36.5777 47.2265 36.5444C47.3314 36.5112 47.429 36.4565 47.5116 36.3838C47.5948 36.3112 47.662 36.2221 47.7088 36.1223C47.7635 36.0274 47.7987 35.9227 47.8128 35.8142C47.8268 35.7057 47.819 35.5955 47.7905 35.4899C47.762 35.3844 47.7127 35.2854 47.646 35.1988C47.5788 35.1122 47.4957 35.0397 47.401 34.9853L47.384 34.9686Z" fill="white"/>
<path d="M44.3397 39.72L43.9898 39.4659L45.5643 37.2752L45.9137 37.5292L44.3397 39.72Z" fill="white"/>
<path d="M44.602 41.2576L44.2938 41.5617L44.0606 41.3284C44.0853 41.4834 44.072 41.642 44.022 41.7907C43.9719 41.9394 43.8866 42.0738 43.7732 42.1822C43.6724 42.306 43.5318 42.3909 43.3754 42.4228C43.2191 42.4547 43.0565 42.4315 42.9152 42.3572C42.9483 42.5308 42.9378 42.7099 42.8847 42.8785C42.8317 43.0472 42.7377 43.2 42.6112 43.3234C42.2156 43.7151 41.7783 43.6692 41.3826 43.2568L40.029 41.8865L40.3372 41.5825L41.6033 42.8986C41.8532 43.1527 42.1031 43.3151 42.4113 42.9985C42.4832 42.9348 42.5408 42.8566 42.5802 42.7691C42.6196 42.6815 42.6399 42.5865 42.6399 42.4905C42.6399 42.3944 42.6196 42.2994 42.5802 42.2119C42.5408 42.1242 42.4832 42.046 42.4113 41.9823L41.2035 40.7329L41.5117 40.4288L42.7903 41.7241C43.0402 41.9823 43.2859 42.1406 43.5941 41.8282C43.6661 41.7642 43.7237 41.6856 43.7632 41.5976C43.8026 41.5097 43.823 41.4144 43.823 41.318C43.823 41.2217 43.8026 41.1263 43.7632 41.0384C43.7237 40.9505 43.6661 40.8719 43.5941 40.8078L42.3863 39.5834L42.6945 39.2793L44.602 41.2576Z" fill="white"/>
<path d="M39.9582 42.8063C40.3247 43.3228 40.0457 43.731 39.5417 44.2559C39.2085 44.6015 39.0627 44.7721 39.221 44.993C39.3793 45.2134 39.5542 45.2511 39.9249 44.993C40.2955 44.7344 40.383 44.4725 40.1747 44.1307L40.5413 43.8644C40.8287 44.3139 40.7911 44.8388 40.1248 45.3096C39.7083 45.6093 39.2002 45.7257 38.8087 45.1511L38.0382 44.0723C37.9132 43.8934 37.8216 43.8267 37.7342 43.8891L37.6842 43.9306L37.5093 43.6851C37.5555 43.6315 37.6071 43.5826 37.6633 43.5391C37.8591 43.4019 38.0299 43.3894 38.2506 43.6518C38.2411 43.4638 38.2825 43.2767 38.3705 43.1103C38.4584 42.9439 38.5897 42.8044 38.7504 42.7064C38.8324 42.6257 38.9308 42.5636 39.039 42.5244C39.1472 42.4853 39.2626 42.4699 39.3772 42.4794C39.4918 42.4889 39.6031 42.523 39.7034 42.5794C39.8036 42.6358 39.8906 42.7132 39.9582 42.8063ZM38.6463 44.1849L38.9003 44.5638C38.9964 44.3507 39.1387 44.1617 39.3168 44.0099C39.6875 43.5933 39.7999 43.3686 39.6125 43.1104C39.4251 42.8521 39.2502 42.8438 38.9586 43.052C38.5213 43.3144 38.338 43.7518 38.6463 44.1849Z" fill="white"/>
<path d="M37.9133 46.6218L36.5306 44.2313L36.9012 44.0143L38.2881 46.4053L37.9133 46.6218ZM38.4047 47.5547L38.1423 47.1047L38.5922 46.8466L38.8545 47.2966L38.4047 47.5547Z" fill="white"/>
<path d="M37.0512 48.3333L35.3102 44.8765L35.6976 44.6808L37.4385 48.1376L37.0512 48.3333Z" fill="white"/>
<path d="M14.8899 46.3845C14.4734 47.1675 13.7404 47.4256 13.0198 47.0467C12.8615 46.9684 12.7217 46.8572 12.6094 46.7209C12.4972 46.5841 12.4152 46.4256 12.3687 46.2555C12.3223 46.0849 12.3125 45.9065 12.34 45.732C12.3676 45.5575 12.4317 45.3908 12.5284 45.2434C12.5659 45.1723 12.6075 45.0931 12.6325 45.0558L14.54 46.068C14.607 45.9636 14.6516 45.8461 14.671 45.7233C14.6905 45.601 14.6844 45.4759 14.6531 45.3555C14.6218 45.2356 14.566 45.123 14.4892 45.0259C14.4124 44.9282 14.3163 44.8475 14.2068 44.789C14.0573 44.6943 13.8796 44.6547 13.7041 44.6769C13.5286 44.6987 13.3662 44.7813 13.2448 44.9099L12.8574 44.7016C13.0434 44.487 13.2991 44.3453 13.5796 44.3009C13.8601 44.2569 14.1471 44.313 14.3901 44.4604C15.1606 44.8683 15.2814 45.6431 14.8899 46.3845ZM14.3651 46.3845L12.8574 45.589C12.8028 45.6851 12.7687 45.7915 12.7572 45.9012C12.7458 46.0114 12.7573 46.1221 12.7909 46.2274C12.8246 46.3328 12.8797 46.43 12.9528 46.5131C13.0259 46.5957 13.1154 46.6624 13.2156 46.7093C13.311 46.7654 13.4167 46.8026 13.5265 46.8176C13.6364 46.8326 13.7481 46.8253 13.8551 46.7968C13.9622 46.7678 14.0624 46.718 14.15 46.6504C14.2375 46.5822 14.3107 46.4976 14.3651 46.401V46.3845Z" fill="white"/>
<path d="M9.61295 43.3443L9.86704 42.9902L12.0578 44.5648L11.8037 44.9142L9.61295 43.3443Z" fill="white"/>
<path d="M8.08025 43.6025L7.77624 43.2942L8.01365 43.061C7.86198 43.0822 7.70741 43.0672 7.56265 43.0173C7.41789 42.9674 7.28696 42.8838 7.18067 42.7736C7.05825 42.6718 6.97419 42.5314 6.94239 42.3754C6.91059 42.2194 6.93297 42.0572 7.00576 41.9156C6.8247 41.9542 6.63678 41.9453 6.46022 41.8898C6.28361 41.8343 6.12435 41.7342 5.99786 41.5991C5.60636 41.2034 5.65213 40.7661 6.06446 40.3705L7.43887 39.0169L7.74294 39.3293L6.44349 40.6037C6.18941 40.8536 6.02701 41.1035 6.34354 41.4117C6.40758 41.4837 6.48617 41.5413 6.57414 41.5807C6.66206 41.6202 6.75732 41.6406 6.8537 41.6406C6.95008 41.6406 7.04539 41.6202 7.13331 41.5807C7.22123 41.5413 7.29982 41.4837 7.36391 41.4117L8.58838 40.2039L8.89245 40.5121L7.59716 41.7907C7.34307 42.0406 7.18067 42.2905 7.49305 42.5987C7.55709 42.6707 7.63568 42.7283 7.72365 42.7678C7.81157 42.8072 7.90683 42.8276 8.00321 42.8276C8.09959 42.8276 8.1949 42.8072 8.28282 42.7678C8.37074 42.7283 8.44933 42.6707 8.51342 42.5987L9.74621 41.3576L10.0503 41.6658L8.08025 43.6025Z" fill="white"/>
<path d="M6.52682 38.9582C6.01038 39.3247 5.6022 39.0456 5.07745 38.5417C4.74839 38.2085 4.56516 38.0627 4.33191 38.221C4.0987 38.3792 4.06955 38.5541 4.33191 38.9248C4.59431 39.2955 4.8525 39.383 5.19823 39.1747L5.46059 39.5454C5.01495 39.8286 4.48599 39.7911 4.01537 39.1289C3.9233 39.0396 3.85312 38.9301 3.81024 38.8092C3.76742 38.6883 3.75311 38.559 3.76844 38.4317C3.78376 38.3043 3.82827 38.1821 3.8986 38.0748C3.96887 37.9674 4.06303 37.8778 4.17366 37.8128L5.25237 37.0423C5.43144 36.9174 5.49809 36.8257 5.4356 36.7383C5.42371 36.72 5.40974 36.7033 5.39393 36.6883L5.63966 36.5134C5.69457 36.56 5.74353 36.6131 5.78543 36.6717C5.92289 36.8633 5.93541 37.034 5.67301 37.2547C5.86141 37.2431 6.04938 37.2831 6.21676 37.3705C6.38409 37.4578 6.5244 37.5891 6.62262 37.7504C6.70285 37.8324 6.76467 37.9307 6.80377 38.0386C6.84287 38.1466 6.85839 38.2616 6.84935 38.376C6.84026 38.4904 6.80677 38.6016 6.75113 38.702C6.6955 38.8024 6.61899 38.8898 6.52682 38.9582ZM5.16488 37.6462L4.79421 37.9003C5.00674 37.9975 5.19572 38.1396 5.34816 38.3168C5.76465 38.6874 5.98539 38.7999 6.24359 38.6125C6.50183 38.425 6.51014 38.2501 6.30188 37.9586C5.99786 37.5213 5.58137 37.338 5.16488 37.6462Z" fill="white"/>
<path d="M1.77879 37.4049L2.24941 37.1425L2.50766 37.5923L2.05787 37.8547L1.77879 37.4049ZM2.71172 36.9134L5.10239 35.5307L5.31897 35.9055L2.9283 37.2882L2.71172 36.9134Z" fill="white"/>
<path d="M1 36.051L4.45685 34.31L4.6526 34.6974L1.19575 36.4383L1 36.051Z" fill="white"/>
<path d="M35.4476 1.9489C35.8641 1.1701 36.593 0.907701 37.3135 1.29089C37.4715 1.3689 37.6112 1.47953 37.7235 1.6154C37.8357 1.75131 37.918 1.90941 37.9648 2.07935C38.0116 2.24924 38.0219 2.42716 37.9951 2.6014C37.9683 2.77559 37.9049 2.94215 37.8091 3.0901C37.7765 3.15452 37.7404 3.21712 37.7008 3.27753L35.7933 2.26543C35.7263 2.37027 35.6816 2.48781 35.6621 2.61068C35.6426 2.73354 35.6487 2.85911 35.68 2.97956C35.7113 3.09996 35.767 3.21262 35.8439 3.3105C35.9207 3.40832 36.0169 3.48928 36.1265 3.54825C36.2762 3.64211 36.4538 3.68136 36.6291 3.65937C36.8044 3.63733 36.9667 3.5554 37.0886 3.42746L37.4759 3.63153C37.2906 3.84579 37.0356 3.98755 36.7558 4.03177C36.4761 4.07595 36.1897 4.01979 35.9474 3.8731C35.1769 3.46492 35.0519 2.69028 35.4476 1.9489ZM35.9682 1.9489L37.4759 2.74857C37.5307 2.65273 37.565 2.54664 37.5767 2.43687C37.5885 2.32715 37.5774 2.21618 37.5441 2.11091C37.5109 2.00569 37.4561 1.90849 37.3835 1.82541C37.3108 1.74232 37.2218 1.67519 37.1219 1.62821C36.9308 1.51796 36.7037 1.48804 36.4905 1.54507C36.2773 1.60206 36.0955 1.74131 35.9849 1.93227L35.9682 1.9489Z" fill="white"/>
<path d="M40.7204 4.99776L40.4663 5.3476L38.2756 3.7483L38.5297 3.39841L40.7204 4.99776Z" fill="white"/>
<path d="M42.2572 4.7314L42.5612 5.03957L42.328 5.27283C42.4826 5.24615 42.6414 5.25804 42.7904 5.30744C42.9393 5.35683 43.0737 5.44224 43.1818 5.55601C43.3058 5.65756 43.391 5.79884 43.4228 5.95592C43.4547 6.11301 43.4314 6.27633 43.3567 6.41814C43.5303 6.38624 43.7092 6.39726 43.8776 6.45023C44.046 6.5032 44.1989 6.59658 44.323 6.7222C44.7146 7.11786 44.6687 7.55518 44.2563 7.95083L42.8861 9.30441L42.582 8.99619L43.8982 7.7301C44.1522 7.48021 44.3146 7.23028 43.9981 6.92211C43.9344 6.85024 43.8562 6.79267 43.7686 6.75323C43.681 6.71384 43.586 6.69344 43.49 6.69344C43.3939 6.69344 43.299 6.71384 43.2114 6.75323C43.1238 6.79267 43.0456 6.85024 42.9819 6.92211L41.7324 8.12991L41.4284 7.82174L42.7237 6.54308C42.9819 6.29319 43.1401 6.04747 42.8278 5.73929C42.7637 5.66728 42.6851 5.60966 42.5972 5.57022C42.5093 5.53078 42.4139 5.51039 42.3176 5.51039C42.2212 5.51039 42.1259 5.53078 42.038 5.57022C41.95 5.60966 41.8714 5.66728 41.8074 5.73929L40.5829 6.9471L40.2914 6.66386L42.2572 4.7314Z" fill="white"/>
<path d="M43.8065 9.37493C44.3229 9.00842 44.731 9.28749 45.2559 9.79142C45.6015 10.1246 45.7721 10.2704 45.993 10.1121C46.2139 9.95387 46.2511 9.7831 45.993 9.40828C45.7349 9.03341 45.4725 8.95013 45.1307 9.16255L44.8644 8.79188C45.3144 8.50449 45.8388 8.54195 46.3096 9.20837C46.6093 9.62486 46.7262 10.1329 46.1515 10.5244L45.0727 11.295C44.8934 11.4199 44.8267 11.5115 44.8896 11.599L44.9311 11.649L44.6851 11.8239C44.6305 11.7787 44.5817 11.727 44.5396 11.6698C44.4021 11.474 44.3896 11.3033 44.6518 11.0825C44.4643 11.0929 44.2774 11.0524 44.1109 10.9651C43.9445 10.8779 43.8048 10.7472 43.7066 10.5869C43.6258 10.5045 43.5637 10.4057 43.5245 10.2972C43.4853 10.1887 43.4699 10.0731 43.4794 9.95807C43.4889 9.84309 43.523 9.73153 43.5794 9.6309C43.6359 9.53027 43.7133 9.44298 43.8065 9.37493ZM45.1849 10.691L45.543 10.4328C45.3294 10.3375 45.1404 10.1951 44.9891 10.0164C44.573 9.64564 44.3479 9.52906 44.0897 9.71645C43.8315 9.90389 43.8232 10.0788 44.0314 10.3704C44.3146 10.8285 44.7518 10.9993 45.1849 10.691Z" fill="white"/>
<path d="M47.6214 11.4198L45.2308 12.8067L45.0143 12.4318L47.4048 11.0449L47.6214 11.4198ZM48.5547 10.9283L48.1047 11.1907L47.8466 10.7409L48.2961 10.4785L48.5547 10.9283Z" fill="white"/>
<path d="M49.3333 12.2819L45.8765 14.0228L45.6808 13.6355L49.1376 11.8945L49.3333 12.2819Z" fill="white"/>
</svg>
